<svg width="729" height="524" viewBox="0 0 729 524" fill="none" xmlns="http://www.w3.org/2000/svg">
<path fill-rule="evenodd" clip-rule="evenodd" d="M360.987 24.3665C697.08 15.576 729.167 262.68 658.606 264.688C522.248 268.567 513.275 343.476 423.417 426.434C278.282 560.435 107.493 568.084 117.682 218.757C121.966 72.1451 224.614 27.9324 360.987 24.3665Z" fill="#F5F2FD"/>
<path fill-rule="evenodd" clip-rule="evenodd" d="M594.231 297.376C691.347 275.69 710.033 319.343 689.65 323.926C650.261 332.782 655.628 346.47 628.18 368.365C588.124 400.319 541.909 387.808 531.067 347.751C523.847 321.063 554.826 306.176 594.231 297.376Z" fill="#F5F2FD"/>
<path d="M560.704 395.359C554.289 393.503 548.54 391.696 542.572 389.205C534.806 386.154 527.975 381.059 520.392 377.646C513.169 374.175 505.285 372.782 497.762 370.179C493.64 368.934 489.189 366.666 484.59 365.317C486.23 364.853 487.94 364.352 489.632 363.906C490.683 363.663 491.754 363.365 492.754 363.105C494.251 363.855 495.785 364.527 497.35 365.12C500.801 366.496 504.34 367.782 507.96 368.67C516.291 370.582 524.772 372.061 533.406 372.439C542.508 372.615 551.146 370.021 559.821 369.624C562.7 369.528 565.651 369.882 568.353 369.967C568.816 369.945 569.41 369.544 569.357 369.04C568.967 368.359 568.015 368.15 567.378 367.687C561.226 363.92 554.477 361.22 547.231 360.776C538.145 360.06 529.168 361.99 520.601 359.936C518.335 359.514 516.099 358.943 513.908 358.227C517.103 356.723 520.317 355.165 523.417 353.445C528.641 350.519 533.461 346.786 538.41 343.34C545.602 338.182 553.222 333.597 559.775 327.49C560.741 326.671 563.089 324.327 560.496 324.583C557.146 325.548 553.854 326.836 550.458 327.604C530.355 330.482 511.801 340.025 497.767 354.705C495.786 356.811 493.888 359.006 492.308 361.433C492.196 361.57 492.105 361.723 492.038 361.886C488.775 362.76 485.597 363.724 482.348 364.723C482.228 364.742 482.158 364.779 482.039 364.798C480.829 365.168 479.62 365.538 478.461 365.926C479.323 364.586 480.242 363.083 480.967 362.303C483.224 359.564 485.386 358.249 488.007 355.939C494.378 350.193 499.968 343.085 503.04 334.863C505.883 327.47 509.003 321.086 513.499 314.51C515.642 308.151 490.99 332.514 489.81 333.622C484.229 338.731 480.61 345.733 477.658 352.783C476.262 356.488 475.142 360.713 473.458 363.771C472.724 365.398 471.57 366.759 470.702 368.279C470.699 368.364 470.708 368.449 470.729 368.531C468.152 369.398 465.588 370.393 463.043 371.333C462.973 371.37 462.923 371.352 462.853 371.389C461.676 371.831 460.499 372.273 459.353 372.787C459.409 372.625 459.415 372.445 459.471 372.282C459.701 371.37 460.044 370.489 460.491 369.661C465.695 361.205 472.324 353.728 477.946 345.539C480.918 341.227 483.876 336.788 485.805 331.873C487.214 328.294 487.902 323.677 489.396 320.674C491.244 317.308 493.461 314.191 495.71 311.146C496.018 310.585 498.226 308.314 498.797 306.995C499.084 304.849 496.108 307.036 495.26 307.349C487.557 311.845 480.745 318.044 475.269 325.314C471.626 329.758 468.097 334.363 465.643 339.644C461.142 348.707 459.364 359.926 455.221 368.446C453.985 370.92 452.473 373.247 450.714 375.383C450.343 375.8 450.452 376.141 450.757 376.247C447.478 377.661 444.283 379.165 441.069 380.723C441.887 375.726 444.919 370.584 447.736 365.734C451.056 360.086 453.957 354.17 456.807 348.239C458.695 344.098 460.45 339.849 461.372 335.374C462.575 328.446 462.731 321.581 464.328 315.155C464.858 313.077 465.543 311.042 466.378 309.067C466.697 308.146 467.358 307.221 467.131 306.233C466.907 305.73 466.216 305.916 465.831 306.208C464.878 307.152 464.256 308.454 463.386 309.488C460.644 312.97 456.984 317.955 454.189 322.085C448.448 330.78 443.218 340.136 440.783 350.461C438.976 358.15 438.994 366.653 437.476 373.835C436.976 376.757 436.509 379.752 435.127 382.429C435.09 382.538 434.964 382.737 434.983 382.682C434.87 383.008 434.517 383.371 434.626 383.712C434.639 383.739 434.657 383.763 434.681 383.782C434.704 383.8 434.731 383.813 434.76 383.819C430.465 386.035 426.266 388.466 422.098 390.969C422.152 390.32 422.054 389.618 422.228 388.95C422.335 387.652 422.928 385.611 423.477 383.86C424.94 379.632 427.16 375.849 428.818 371.385C432.405 363.159 432.645 354.078 433.458 345.316C434.246 335.636 433.456 326.077 433.37 316.458C433.408 314.837 433.531 313.218 433.739 311.609L433.795 311.447C434.162 309.821 434.446 308.177 434.646 306.522C434.77 305.836 433.956 305.555 433.482 305.937C432.787 306.303 432.88 307.185 432.706 307.853C432.445 309.098 432.306 310.324 432.166 311.549C431.113 316.404 429.483 321.606 427.902 326.339C424.915 333.984 420.809 341.241 418.871 349.31C417.16 356.063 417.665 363.155 418.695 369.884C419.359 373.391 420.171 375.978 419.923 379.655C419.922 383.114 419.677 386.124 418.867 389.121C418.486 390.385 418.023 391.56 417.541 392.789C417.515 392.864 417.509 392.944 417.521 393.023C417.534 393.101 417.565 393.175 417.613 393.239C417.668 393.288 417.732 393.326 417.802 393.35C417.872 393.374 417.946 393.384 418.02 393.38C415.073 395.152 412.177 396.941 409.262 398.785C409.9 397.77 410.442 396.698 410.883 395.583C412.814 391.153 413.405 386.321 414.028 381.56C414.842 375.59 415.008 369.518 413.849 363.656C412.988 358.745 411.296 354.094 410.175 349.275C408.944 343.623 408.327 337.854 408.332 332.069C408.345 331.755 408.377 331.442 408.429 331.132C408.609 330.284 408.769 329.49 408.879 328.678C407.599 327.446 407.042 328.892 406.813 331.361C405.662 337.154 403.507 343.873 402.929 349.984C402.283 358.925 403.311 367.959 405.225 376.572C406.258 381.481 408.64 385.947 408.72 390.648C408.773 393.458 408.022 395.625 407.13 398.533C407.05 398.93 406.659 399.402 406.972 399.814L407.074 399.849C407.027 399.957 407.006 400.074 407.012 400.192C393.793 408.787 381.137 418.548 369.937 430.027C368.556 431.551 367.105 433.112 365.807 434.726C365.531 435.359 366.294 435.623 366.781 435.367C368.435 433.876 369.744 431.901 371.366 430.338C384.013 417.479 398.356 406.785 413.759 397.307C418.67 401.373 422.357 406.836 427.09 411.084C436.282 419.06 448.592 421.317 459.366 426.198C460.452 426.514 462.183 427.598 462.962 426.168C462.994 426.073 462.996 425.971 462.968 425.875C462.941 425.778 462.885 425.693 462.807 425.629C462.12 425.149 461.376 424.831 460.651 424.458C456.366 422.368 453.194 419.693 449.739 416.191C448.528 414.922 447.297 413.707 446.048 412.547C447.811 413.703 449.662 414.768 451.513 415.834C457.227 419.389 464.329 421.725 470.166 423.442C475.987 425.665 481.358 428.922 486.02 433.055C487.095 433.731 488.085 434.984 489.348 435.117C491.349 434.596 489.629 433.151 488.883 432.347C482.644 426.364 477.256 419.402 470.412 414.181C466.44 411.35 462.682 409.381 459.127 406.331C455.276 403.481 451.997 399.797 447.932 397.237C442.702 394.092 436.541 393.477 431.442 391.106C429.974 390.416 428.885 389.614 427.797 388.813C431.629 386.619 435.424 384.534 439.353 382.556L442.105 384.965C447.109 389.912 452.913 393.863 458.918 397.398C463.593 400.169 468.783 401.783 473.208 404.952C482.887 411.519 490.807 422.513 501.102 429.11C503.704 430.8 506.182 432.689 508.822 434.27C509.902 434.766 511.423 435.959 512.471 434.744C512.891 433.858 511.76 433.345 511.313 432.826C509.816 431.398 508.267 429.951 506.946 428.341C500.162 419.985 494.034 410.885 485.66 404.164C476.794 396.726 467.467 389.797 457.054 384.858C453.207 382.98 449.321 380.725 444.925 380.6C444.422 380.602 443.92 380.571 443.421 380.504C447.122 378.69 450.939 377.037 454.838 375.473C456.034 374.977 457.212 374.534 458.408 374.038C460.619 376.199 461.999 379.286 464.614 381.102C473.304 387.568 482.931 392.478 493.028 396.031C508.894 401.826 524.489 409.225 541.551 410.578C542.953 410.638 544.408 411.202 545.808 410.776C547.78 409.517 544.289 408.916 543.513 408.526C540.634 407.469 538.596 406.945 535.621 405.673C532.352 403.935 529.228 401.944 526.035 399.989C517.681 394.852 509.352 389.482 500.251 385.847C490.739 382.252 481.487 380.203 472.465 375.685C469.763 374.446 467.15 373.117 464.592 371.625C469.182 369.876 473.734 368.234 478.401 366.755C478.556 367.293 479.452 367.664 479.816 368.094C483.071 370.859 487.081 372.428 490.751 374.487C496.501 377.934 501.925 381.996 507.984 384.882C517.436 388.82 526.598 392.112 536.788 394.242C543.182 395.666 549.697 397.071 556.324 396.997C557.423 397.44 562.451 397.056 560.704 395.359ZM424.542 391.147C424.574 391.218 424.624 391.236 424.657 391.308C424.689 391.38 425.576 392.597 425.264 392.185C426.852 395.162 429.033 397.738 431.253 400.206C431.649 400.707 432.063 401.154 432.478 401.601C428.619 399.137 424.383 397.322 419.937 396.229C418.953 395.949 418.172 395.739 417.409 395.475C419.748 393.979 422.12 392.554 424.542 391.147Z" fill="url(#paint0_linear_293_91)"/>
<path d="M495.749 253.489C489.481 258.064 483.756 262.102 477.35 266.027C469.157 271.217 460.139 274.736 451.812 279.615C443.717 284.167 436.681 290.175 429.011 295.355C424.943 298.273 419.857 301.022 415.351 304.294C416.248 302.717 417.17 301.065 418.119 299.453C418.735 298.466 419.325 297.439 419.889 296.487C421.602 295.559 423.262 294.552 424.895 293.507C428.55 291.209 432.205 288.798 435.622 286.148C443.387 279.99 450.941 273.519 457.783 266.442C464.829 258.884 469.44 250.514 475.731 243.066C477.845 240.61 480.353 238.288 482.469 236.059C482.805 235.661 482.954 234.989 482.535 234.815C481.726 234.847 480.846 235.555 480.016 235.889C472.511 239.414 465.354 243.904 459.518 249.788C452.078 257.098 446.71 265.464 438.659 271.757C436.849 273.323 434.44 275.12 432.29 276.63C433.586 273.297 434.857 269.926 435.918 266.581C437.687 260.93 438.541 255.268 439.71 249.623C441.295 241.353 443.636 232.974 444.022 224.829C444.141 223.663 444.162 220.678 442.385 222.963C440.565 226.192 439.034 229.511 437.031 232.692C424.243 250.297 416.959 270.242 417.383 288.639C417.461 291.214 417.67 293.758 418.295 296.135C418.311 296.283 418.357 296.427 418.43 296.558C416.609 299.673 414.919 302.757 413.203 305.915C413.125 306.024 413.099 306.099 413.023 306.208C412.383 307.383 411.743 308.558 411.154 309.698C410.801 308.393 410.369 306.972 410.333 306.024C409.988 302.943 410.643 300.559 410.897 297.359C411.416 289.524 410.318 281.752 406.472 275.608C403.074 270.018 400.644 264.632 399.115 258.009C395.963 253.453 395.553 284.695 395.49 286.166C395.091 293.063 397.606 299.134 400.664 304.669C402.389 307.446 404.714 310.219 405.733 312.958C406.399 314.28 406.546 315.837 407.03 317.225C407.135 317.268 407.161 317.307 407.239 317.311C405.935 319.849 404.735 322.431 403.508 324.973C403.483 325.047 403.431 325.082 403.405 325.156C402.843 326.335 402.281 327.515 401.798 328.698C401.718 328.581 401.587 328.498 401.507 328.38C400.996 327.79 400.592 327.116 400.312 326.388C397.908 318.356 397.321 309.553 395.436 301.285C394.452 296.922 393.362 292.516 391.132 288.766C389.512 286.032 386.563 283.452 385.441 280.896C384.314 277.887 383.655 274.675 383.074 271.468C382.886 270.967 382.857 268.13 382.298 267.079C380.903 265.907 380.286 269.351 379.877 270.199C377.406 278.609 376.892 287.012 378.198 294.757C378.772 299.741 379.553 304.698 381.659 309.047C385.052 316.754 392.137 323.11 395.394 330.281C396.329 332.441 396.933 334.729 397.187 337.069C397.218 337.562 397.558 337.619 397.868 337.409C396.441 340.772 395.145 344.104 393.875 347.476C390.74 344.622 389.178 339.849 387.67 335.382C385.946 330.147 383.703 325.149 381.408 320.186C379.729 316.806 377.869 313.492 375.205 310.777C370.91 306.764 365.868 303.655 362.251 299.528C361.093 298.185 360.081 296.724 359.231 295.168C358.781 294.501 358.588 293.545 357.673 293.307C357.124 293.277 356.74 293.937 356.666 294.386C356.652 295.595 357.159 296.681 357.276 297.86C357.811 301.669 358.778 306.901 359.76 311.037C361.936 319.623 364.997 328.068 370.909 334.588C375.317 339.439 381.722 343.113 385.968 347.501C387.786 349.187 389.682 350.878 390.646 353.198C390.699 353.277 390.753 353.469 390.726 353.43C390.885 353.665 390.89 354.119 391.23 354.175C391.296 354.176 391.361 354.152 391.412 354.109C389.815 358.673 388.453 363.249 387.169 367.83C386.722 367.503 386.119 367.282 385.749 366.846C384.855 366.192 383.771 364.81 382.872 363.59C380.805 360.529 379.647 357.026 377.551 353.698C374.091 347.122 367.447 342.981 361.477 338.5C354.799 333.64 347.013 330.156 339.717 326.056C338.54 325.331 337.415 324.525 336.351 323.643L336.271 323.526C335.32 322.506 334.299 321.554 333.215 320.676C332.794 320.275 331.964 320.835 331.892 321.399C331.638 322.141 332.372 322.445 332.742 322.881C333.487 323.616 334.279 324.303 335.112 324.938C337.961 327.927 340.633 331.55 342.991 334.929C346.469 340.75 348.807 347.341 353.4 352.467C357.176 356.83 362.892 359.483 368.732 361.539C371.874 362.503 374.436 362.943 377.011 364.747C379.61 366.248 381.687 367.759 383.325 369.739C383.961 370.605 384.545 371.507 385.075 372.442C385.122 372.498 385.183 372.541 385.252 372.565C385.322 372.588 385.396 372.592 385.468 372.576C385.63 372.525 385.774 372.427 385.882 372.296C384.976 375.536 384.122 378.741 383.294 381.986C383.02 381.023 382.625 380.1 382.117 379.238C380.254 375.697 377.07 373.105 373.964 370.517C370.094 367.245 365.656 364.472 360.369 362.9C356.023 361.493 351.241 360.894 346.767 359.745C341.755 358.395 336.937 356.406 332.433 353.827C332.209 353.682 331.998 353.519 331.801 353.339C331.325 352.833 330.824 352.352 330.299 351.897C328.399 352.437 329.063 353.531 330.746 354.794C334.226 358.272 337.641 362.992 341.796 366.129C348.026 370.55 355.599 373.606 363.528 375.736C368.003 376.999 373.169 376.939 376.764 378.91C378.916 380.085 379.976 381.655 381.484 383.665C381.721 383.904 381.779 384.437 382.326 384.353L382.429 384.283C382.477 384.37 382.551 384.44 382.64 384.483C379.061 399.298 376.787 414.146 376.908 428.519C377.005 430.338 377.077 432.233 377.304 434.022C377.57 434.528 378.348 434.003 378.525 433.483C378.66 431.449 378.171 429.494 378.228 427.456C378.166 411.272 381.022 394.603 385.596 377.574C392.383 375.22 399.29 374.497 406.079 372.37C419.057 368.12 430.103 358.775 441.957 351.856C443.019 351.082 445.149 350.101 444.666 348.827C444.601 348.756 444.516 348.708 444.422 348.69C444.327 348.671 444.23 348.683 444.143 348.724C443.26 349.092 442.456 349.578 441.625 350.025C436.799 352.712 432.379 354.212 427.122 355.591C425.248 356.057 423.4 356.561 421.579 357.105C423.787 356.129 425.994 355.038 428.201 353.948C435.213 350.698 442.364 345.755 448.088 341.604C454.084 337.732 460.563 334.663 467.357 332.477C468.681 331.868 470.375 331.581 471.434 330.58C472.563 328.676 470.171 329.491 468.999 329.768C459.763 332.406 450.436 333.904 441.313 337.38C436.168 339.483 431.833 341.782 426.84 343.439C421.772 345.433 416.513 346.585 411.5 348.884C405.164 351.906 400.022 356.807 394.366 360.055C392.923 360.854 391.421 361.544 389.873 362.118C391.135 357.952 392.45 353.864 393.947 349.711L397.848 348.448C405.369 346.398 412.747 343.244 419.964 339.74C425.599 337.021 430.754 333.368 436.497 331.033C448.786 325.763 463.067 323.889 475.846 318.117C479.093 316.667 482.394 315.409 485.588 313.88C486.781 313.189 488.835 312.431 488.716 311.025C488.369 310.288 487.124 311.015 486.395 311.164C484.183 311.801 481.92 312.472 479.706 312.882C468.272 314.947 456.776 316.139 445.363 320.247C433.037 324.456 420.744 329.273 409.122 335.864C404.789 338.276 400.142 340.557 396.708 344.19C396.325 344.617 395.92 345.024 395.495 345.409C396.942 341.518 398.598 337.601 400.384 333.652C400.919 332.434 401.481 331.254 402.017 330.036C405.321 329.118 408.689 329.3 412.041 327.894C423.502 323.411 434.506 317.466 444.846 310.541C461.253 299.747 478.662 289.877 492.638 276.154C493.748 275.005 495.278 274.029 496.02 272.671C496.572 270.47 493.468 273.137 492.586 273.619C489.605 275.574 487.663 277.057 484.447 279C480.658 280.988 476.788 282.744 472.892 284.575C462.686 289.353 452.322 294.009 442.677 300.065C432.749 306.483 424.182 313.354 413.933 318.961C410.949 320.69 407.965 322.305 404.901 323.803C407.072 319.195 409.296 314.665 411.728 310.109C412.251 310.212 413.21 309.622 413.809 309.503C418.36 307.973 422.585 305.29 426.922 303.106C433.881 299.777 441.055 296.99 447.826 293.16C457.965 286.942 467.399 280.686 476.741 273.063C482.668 268.318 488.672 263.464 493.651 257.874C494.821 257.144 498.351 252.76 495.749 253.489ZM389.159 365.86C389.237 365.864 389.289 365.829 389.367 365.833C389.446 365.838 391.035 365.621 390.488 365.705C393.932 365.664 397.526 364.952 401.067 364.161C401.744 364.046 402.395 363.892 403.045 363.738C398.221 365.931 393.669 368.679 389.482 371.926C388.524 372.63 387.773 373.195 386.995 373.72C387.647 371.109 388.377 368.502 389.159 365.86Z" fill="url(#paint1_linear_293_91)"/>
<path d="M113.354 398.879C112.357 394.398 114.127 389.254 117.404 386.167L118.378 385.348C117.583 384.798 116.668 384.237 116.013 383.458C114.802 382.149 114.295 380.36 114.265 378.611C114.308 377.322 114.798 376.087 115.651 375.119C116.386 374.28 117.404 373.645 118.303 373.001C119.741 371.681 121.616 370.88 123.443 371.339C124.354 368.469 126.79 366.753 130.832 367.343C133.983 367.797 137.089 370.172 137.038 373.538C137.176 375.416 136.274 377.505 136.866 379.001C137.547 380.866 140.158 381.996 141.137 379.732C141.954 377.936 141.219 376.007 139.854 374.384C137.115 371.257 133.269 368.395 134.639 363.699C136.898 356.37 149.131 354.84 152.474 362.112C152.625 362.408 152.739 362.721 152.815 363.045C152.88 362.99 152.88 362.99 152.999 363.001C152.982 362.378 153.056 361.755 153.219 361.154C153.647 359.686 154.359 358.423 154.472 357.108C154.641 355.859 154.235 354.981 153.471 354.073C152.031 352.624 149.451 351.136 149.006 348.63C148.795 347.588 149.028 346.284 149.917 345.76C150.74 345.289 152.174 345.413 152.374 346.574C152.442 347.182 151.977 347.684 151.479 347.881C151.229 347.98 150.762 347.819 150.793 347.461C150.868 347.287 151.117 347.188 151.182 347.133L151.312 347.024C151.678 346.273 151.111 345.863 150.408 346.344C149.348 347.456 149.933 349.734 151.319 351.118C152.083 352.027 153.52 352.814 154.383 353.972C155.027 354.87 155.532 355.998 155.374 357.128C155.24 358.681 154.183 360.456 154.015 361.705C153.997 362.046 153.947 362.384 153.867 362.716C154.482 362.478 155.123 362.312 155.776 362.219C158.74 362.054 161.853 363.648 163.308 366.302C164.111 367.648 164.676 369.123 164.978 370.661C166.497 370.491 168.222 370.038 169.82 370.357C169.939 370.368 170.114 370.443 170.233 370.453C170.025 370.074 169.871 369.76 169.664 369.381C165.386 359.68 163.104 349.188 158.642 339.532C158.192 338.47 157.678 337.462 157.173 336.335C157.044 336.444 156.849 336.608 156.838 336.727C155.779 337.839 154.753 339.255 153.257 339.848C152.491 340.118 151.668 340.184 150.868 340.041C150.068 339.898 149.319 339.55 148.694 339.032C147.909 338.362 147.438 337.539 146.783 336.76C145.91 335.722 144.658 334.891 143.449 334.244C141.654 333.427 139.544 332.763 138.493 330.986C137.695 329.774 137.277 328.353 137.032 327.007C133.323 328.131 129.263 328.442 126.082 326.24C125.833 326.339 125.519 326.492 125.508 326.612C124.017 327.572 122.434 328.382 120.784 329.03C114.908 331.531 108.348 328.736 106.789 322.401C106.711 321.913 106.578 321.36 106.5 320.872C103.677 320.808 102.429 318.532 101.635 315.875C101.281 314.4 101.351 312.902 101.062 311.371C100.95 310.579 100.729 309.657 100.518 308.615C98.6354 310.198 96.4884 313.443 93.7548 311.642C89.5271 308.326 89.1498 301.551 92.2814 297.368C91.6436 297.169 90.9936 297.013 90.3355 296.898C89.7483 296.727 87.6209 296.964 86.501 296.687C83.9475 296.285 84.2502 293.482 85.2963 291.827C87.0795 288.672 89.8017 286.151 93.0843 284.615C93.2687 284.571 93.3986 284.462 93.583 284.417C93.4295 284.103 93.2864 283.67 93.1875 283.42C92.9661 282.502 93.0497 281.537 93.4256 280.672C95.6213 276.166 102.099 277.148 106.642 278.204C106.433 276.977 106.498 275.72 106.831 274.521C107.163 273.322 107.756 272.211 108.566 271.267C111.215 268.486 115.581 266.035 119.26 268.039C120.788 267.088 122.709 267.133 124.406 267.702C125.731 268.122 126.978 268.759 128.096 269.586C128.324 269.726 128.488 269.921 128.717 270.061C127.793 267.513 126.99 264.975 126.002 262.483C125.753 262.451 125.526 262.323 125.37 262.127C124.439 260.361 123.33 259.964 121.719 259.102C118.825 257.768 116.52 257.268 113.236 256.261C110.007 255.319 106.853 254.204 103.709 252.968C102.445 254.364 101.037 255.326 99.793 256.482C98.7337 257.594 98.3601 259.127 97.7487 260.639C96.7804 262.783 95.389 264.95 93.1995 265.904C91.6353 266.607 89.8989 266.833 88.2067 266.555C88.0874 266.545 88.0327 266.48 87.9678 266.535C87.9538 266.663 87.9013 266.785 87.8173 266.883C86.8699 268.787 85.5639 270.662 83.6237 271.516C81.9225 272.393 79.1534 272.394 77.743 272.693C75.4095 273.214 73.8965 274.708 71.4784 275.522C69.364 276.303 66.8443 276.204 64.9059 274.954C63.1312 273.897 62.1873 271.588 62.8409 269.598C63.1016 268.849 63.4878 268.149 63.983 267.53C63.2956 267.017 62.6601 266.437 62.0859 265.8C60.3734 264.027 59.993 261.466 61.6132 259.439C62.2831 258.654 63.5374 257.378 63.8385 256.682C65.0899 254.743 64.2757 252.324 64.7217 249.956C65.4996 246.532 68.1378 243.871 71.2702 242.456C69.9573 240.236 71.0224 237.679 72.0987 235.665C72.7009 234.273 72.6406 232.883 71.9826 231.441C71.2054 229.99 70.5815 228.852 71.5864 227.675C71.129 227.395 70.7366 227.06 70.2247 226.714C68.6347 225.613 67.5609 223.414 68.3237 221.553C68.7856 220.389 69.7595 219.571 70.6138 218.742C71.6074 217.596 72.3226 216.237 72.7033 214.769C73.0769 213.236 73.2867 211.508 74.4966 210.048C77.5555 206.701 83.9894 205.392 87.1447 209.277C88.608 211.149 88.5235 214.212 90.8175 214.832C91.061 214.872 91.3106 214.852 91.5448 214.774C89.7098 212.328 88.7085 209.292 86.1934 207.749C84.3095 206.563 81.7086 205.315 80.2115 203.138C79.4239 201.806 79.0464 199.907 79.8329 198.47C80.5338 197.327 81.8455 196.778 83.048 196.1L83.2427 195.936C82.5228 195.212 81.803 194.487 81.1378 193.828L81.0728 193.882C80.4862 194.292 79.765 194.461 79.0576 194.355C78.3501 194.249 77.7102 193.876 77.2695 193.312C76.7237 192.663 76.4507 192.338 75.8843 191.929C75.7523 191.822 75.5867 191.765 75.4167 191.768C74.5802 191.695 73.8971 191.937 72.8768 191.909C69.814 191.825 69.127 188.635 70.3546 186.273C70.7856 185.468 71.4348 184.922 72.1386 184.441C71.6473 183.857 71.0912 183.327 70.6001 182.742C70.4702 182.852 70.2208 182.95 70.0911 183.06C68.5535 184.131 68.0635 186.315 67.6383 188.446C67.2234 190.456 66.071 192.644 63.9671 193.305C61.1152 194.262 57.9921 192.789 56.2013 190.526C55.0108 188.977 54.3193 187.233 52.5888 186.361C52.0224 185.95 50.1414 185.426 49.2266 184.866C48.1811 184.281 47.3853 183.334 46.9889 182.204C46.7849 181.637 46.6937 181.036 46.7205 180.435L46.5906 180.544C45.7559 181.492 45.1975 182.652 44.9762 183.896C44.7975 185.265 45.4007 186.642 45.9804 187.595C46.9759 189.306 49.0603 191.654 47.5704 193.571C46.7603 194.585 45.4457 194.471 44.2949 194.552C44.2301 194.606 44.2949 194.552 44.4145 194.562C43.0351 194.503 41.8768 195.366 41.73 196.377C41.5927 197.268 42.7332 197.306 43.5668 196.716L43.8264 196.498C44.0005 196.573 43.4679 196.467 43.4134 196.402C43.0755 196.132 43.465 195.804 43.8235 195.835C44.3666 195.822 45.1174 196.188 44.7618 196.82C44.3412 197.506 43.4737 197.792 42.7464 197.849C40.4447 198.011 40.2622 195.949 41.8747 194.704C43.1084 193.666 45.1841 194.027 46.0413 193.86C47.7115 193.342 47.2351 191.194 46.3826 189.916C44.94 187.805 43.2998 185.195 44.4287 182.583C44.8804 181.539 45.4071 180.32 46.4799 179.751C46.4546 179.712 46.4209 179.679 46.3814 179.655C46.3418 179.631 46.2974 179.616 46.2513 179.611C45.4561 179.061 45.1182 178.79 44.3024 178.479C42.507 177.662 39.3749 179.076 36.5274 178.589C33.6048 178.276 30.9106 175.333 31.7112 172.332C32.3002 170.396 33.9883 168.977 35.7543 168.046C33.5431 166.47 30.5893 166.516 28.2453 164.387C26.5873 162.678 29.5587 161.731 30.751 161.172C31.6937 160.712 33.6752 159.379 35.2391 159.393C35.4235 159.349 35.5976 159.424 35.782 159.38L35.7274 159.315C35.605 158.643 35.5579 157.796 36.0331 157.175C38.0089 154.517 44.9636 155.54 48.079 157.796L48.0245 157.731C47.1446 156.09 46.8821 154.188 47.2846 152.37C47.9251 150.635 49.1099 149.155 50.6617 148.15C52.2136 147.145 54.0492 146.669 55.8938 146.794L56.0134 146.804C55.4082 146.325 54.8296 145.812 54.28 145.27C53.3416 144.431 52.3153 143.697 51.2191 143.079C47.4853 141.01 43.0402 140.204 39.6621 137.503C38.8774 136.833 37.796 135.416 38.7803 134.477C39.6138 133.887 40.7336 134.165 41.6897 134.248C43.6459 134.597 45.9917 134.619 47.7916 133.993C49.9501 133.397 52.0407 132.194 54.3659 132.455C54.6103 132.251 54.8154 132.003 54.971 131.725C57.3251 128.859 61.2665 128.538 64.7733 128.359C67.1943 128.207 69.1685 127.657 71.0643 126.616C75.1706 124.383 78.9981 120.5 83.939 120.447C85.04 120.445 86.1246 120.713 87.0979 121.228C88.0713 121.742 88.9038 122.487 89.5228 123.398C91.0199 125.574 90.5553 128.845 87.8887 129.758C84.6783 130.684 83.1076 126.575 80.4547 125.924C80.1613 125.838 79.2702 125.701 78.8364 125.844C78.2627 126.048 77.7279 126.348 77.2548 126.731C76.6056 127.277 76.0654 127.952 75.3719 128.313C75.5357 128.508 75.6346 128.758 75.3542 129.215C74.4142 130.337 72.7855 130.377 71.5829 131.056C70.0767 131.768 68.303 133.481 67.0074 135.235C65.8521 136.76 64.8972 139.447 63.8302 141.34C62.9576 142.943 61.7485 144.338 60.2859 145.429C60.0123 145.64 59.7141 145.816 59.3979 145.954C59.4037 147.279 59.4743 148.549 59.4904 149.754C59.5553 149.699 59.6748 149.71 59.7397 149.655C60.2931 149.465 60.8209 149.208 61.3109 148.888C62.839 147.937 64.1677 146.487 65.9469 146.099C66.9884 145.888 68.1186 146.046 68.9684 146.661C69.7634 147.212 70.4626 148.175 70.4994 149.142C70.7131 150.846 69.6771 152.381 68.7712 153.808C68.3402 154.614 68.0288 155.43 68.1616 155.983C68.3353 156.42 68.6715 156.773 69.0997 156.967C69.8063 157.149 70.609 156.917 71.77 156.717C72.0085 156.663 72.2534 156.644 72.4974 156.659L72.5387 156.181C72.6364 153.662 74.4852 151.775 77.0051 151.873C82.2604 151.666 86.1083 160.065 79.391 161.169C78.4143 161.325 77.3182 161.471 76.3621 161.388C76.4612 162.032 76.5257 162.681 76.5552 163.331C76.9177 163.519 77.2427 163.771 77.514 164.076C78.3976 164.996 78.4682 166.265 78.3647 167.461C78.2189 169.177 77.4118 170.769 76.1139 171.901C74.6207 173.156 72.8718 173.185 71.7923 174.536C71.3276 175.038 71.18 176.049 71.3022 176.721C71.5234 177.643 71.9186 178.642 71.9554 179.607C72.0019 180.231 71.9272 180.858 71.7353 181.454L73.3728 183.402L73.5675 183.238C74.8148 182.402 76.0178 181.501 77.172 180.54C79.4641 178.391 80.9214 176.169 82.1899 173.329C82.491 172.633 82.7921 171.937 83.0283 171.295C80.5429 166.625 85.2494 165.106 84.9901 160.449C84.9443 159.468 84.8275 158.493 84.6407 157.529C83.9386 156.608 83.5121 155.506 83.4108 154.353C83.3505 152.963 83.7032 151.668 83.2637 150.487C82.8892 149.251 82.1458 148.103 82.2595 146.788C82.3056 144.866 84.5517 144.639 86.01 145.187C88.8262 146.032 91.1157 148.097 92.6572 150.457C93.6631 152.05 94.3549 153.795 94.4932 155.673C94.4829 155.793 94.5374 155.857 94.4726 155.912C95.1613 155.779 95.8288 155.553 96.457 155.241C96.5764 155.251 97.6698 154.443 98.2123 154.43C99.0397 154.349 99.8703 154.548 100.571 154.995C102.315 156.41 102.835 158.743 103.745 160.748C105.269 164.01 106.772 167.511 106.267 171.26C106.236 171.618 106.15 171.912 106.119 172.27C107.064 172.221 108.01 172.323 108.922 172.573C110.206 173.045 111.479 173.637 112.352 174.676C112.715 175.273 112.918 175.953 112.942 176.651C112.966 177.349 112.81 178.041 112.489 178.661C111.552 180.447 110.045 181.159 108.846 182.5C107.267 184.049 107.333 186.763 105.952 188.811C104.981 190.292 103.781 191.633 102.254 192.584C102.124 192.693 101.875 192.792 101.745 192.901C101.854 193.031 101.898 193.215 102.008 193.345C102.304 194.094 102.645 195.026 102.938 195.112C103.939 195.379 105.606 194.199 107.269 194.463C109.877 194.929 111.896 197.332 112.027 199.992C112.005 202.337 110.439 204.429 109.458 206.03C109.149 206.496 108.903 207.001 108.726 207.532C112.216 208.254 115.458 209.74 118.139 212.139C119.808 213.729 121.684 215.696 121.771 218.172C121.608 220.746 118.845 222.072 117.583 224.13C117.022 225.045 116.823 226.653 117.143 227.824C117.589 230.092 118.352 232.285 119.408 234.341C120.581 236.79 122.112 239.27 121.928 242.085C121.855 243.009 121.593 243.909 121.158 244.728C121.083 244.902 120.942 245.131 120.867 245.305C122.237 248.253 123.553 251.136 124.793 254.193C126.879 259.309 128.66 264.46 130.496 269.675C130.638 269.693 130.781 269.685 130.92 269.652C134.719 269.559 139.771 272.405 138.672 276.764C138.472 277.922 138.049 279.03 137.426 280.027C137.361 280.081 137.286 280.255 137.221 280.31C138.185 280.979 139.048 281.783 139.783 282.699C141.488 285.254 141.776 288.891 140.278 291.591C139.948 292.105 139.583 292.596 139.187 293.061L138.928 293.28C139.663 295.209 140.399 297.139 141.199 299.015C144.553 298.522 145.497 300.832 147.438 302.745C148.376 303.729 149.431 304.061 150.189 303.645C151.262 303.076 151.376 301.761 150.96 301.002C149.977 299.834 147.782 299.463 146.161 298.72C144.823 298.184 143.526 297.168 142.923 295.792C142.34 294.181 142.261 292.432 142.696 290.775C143.121 288.645 145.737 283.454 148.411 283.866C148.651 282.882 149.167 281.986 149.897 281.285C152.255 279.081 156.118 278.271 158.981 279.964C159.786 280.395 160.582 280.945 161.062 281.649C161.592 282.558 161.915 283.573 162.009 284.62C162.073 284.795 162.078 284.986 162.022 285.163C162.403 285.148 162.784 285.161 163.163 285.202C164.88 285.531 167.177 286.813 168.406 287.221C169.874 287.649 171.483 287.848 172.724 288.799C175.764 291.229 175.966 295.159 174.177 298.436C173.887 299.012 173.541 299.524 173.261 299.982C175.285 300.939 177.244 301.952 179.268 302.91C183.176 305.054 185.153 307.934 183.529 311.405C186.819 313.736 189.13 318.331 186.996 322.119C184.914 325.31 180.618 326.262 178.359 328.716C177.364 329.773 176.424 330.896 175.167 331.51C174.126 331.934 172.994 332.084 171.879 331.947C171.749 332.056 171.609 332.285 171.479 332.394C170.245 333.431 168.508 333.341 167.039 332.913C164.8 332.358 163.258 329.997 161.473 329.06C160.951 328.834 160.159 328.946 159.65 329.263C158.642 329.778 157.678 330.477 156.573 330.743C157.953 333.572 159.323 336.519 160.574 339.457C164.981 349.049 167.144 359.529 171.551 369.121C172.955 372.373 174.998 375.199 177.259 378.284C177.397 377.393 177.654 376.512 178.259 375.782C179.469 374.322 180.996 373.37 181.793 371.814C182.935 369.746 182.739 367.14 184.229 365.223C186.8 361.953 191.973 362.703 194.688 365.405C196.203 366.68 196.666 368.285 196.76 369.979C199.64 368.001 202.629 366.153 206.092 365.79C209.012 365.441 212.709 366.544 213.905 369.416C214.36 371.804 212.675 373.885 211.717 375.909C211.006 377.172 210.654 378.465 210.355 379.824L210.474 379.835C212.984 380.052 215.558 380.214 218.099 380.073C220.629 380.051 223.515 379.398 225.866 380.745C227.477 381.607 228.333 383.547 227.525 385.223C225.749 389.043 220.641 390.346 216.721 390.427C212.508 390.424 209.205 390.319 205.884 393.221C204.835 394.214 203.215 396.241 201.841 397.507C200.197 399.11 198.38 400.638 196.245 401.657C196.019 401.722 195.806 401.826 195.616 401.964C198.663 405.719 201.698 409.594 204.485 413.567C204.856 414.141 205.348 414.726 205.654 415.354C205.743 415.723 205.299 415.985 204.93 416.074C203.834 416.22 203.449 415.103 202.968 414.399C201.635 412.417 200.117 410.48 198.654 408.608C193.783 402.287 188.642 396.304 183.836 389.928C179.696 384.213 175.057 378.695 171.49 372.606C170.657 373.197 169.724 373.537 168.945 374.192C167.787 375.055 166.286 377.092 166.261 378.776C165.924 381.275 166.598 383.922 167.638 385.818C168.688 387.594 169.93 388.544 171.743 388.461C172.102 388.492 172.935 387.902 172.672 387.458C172.399 387.134 172.225 387.058 171.682 387.072C171.379 387.106 171.116 386.661 171.43 386.508C171.744 386.355 172.038 386.44 172.342 386.406C173.701 386.705 174.249 388.017 172.862 388.74C171.66 389.418 170.073 388.98 168.918 388.398C166.478 386.682 165.422 383.581 165.247 380.737C165.091 379.4 165.294 378.045 165.834 376.812C166.374 375.578 167.233 374.511 168.323 373.72C169.092 373.184 169.85 372.768 170.673 372.298C169.075 371.979 167.34 372.551 165.343 372.679C164.919 372.703 164.506 372.607 164.083 372.63L164.192 372.76C164.41 373.02 165.099 374.102 165.222 374.776C166.236 378.355 162.158 379.566 159.379 379.687C156.469 379.917 153.793 378.843 151.419 379.841C150.513 380.149 149.675 380.629 148.949 381.253C149.809 381.749 150.735 382.19 151.595 382.686C154.359 384.129 157.103 385.811 158.668 388.595C160.56 391.769 161.554 395.587 160.581 399.175C160.071 401.599 158.648 404.125 156.155 405.113C154.181 405.664 152.853 405.008 151.946 403.665C152.475 407.985 151.672 413.092 148.58 416.136C146.341 418.35 142.864 420.276 139.741 418.802C138.302 418.152 137.094 417.082 136.275 415.732C135.334 414.086 135.045 412.556 133.639 411.411C132.615 410.72 131.584 410.812 130.356 410.404C129.604 410.105 128.931 409.637 128.388 409.037C127.845 408.437 127.447 407.721 127.224 406.943C127.047 406.205 126.925 405.532 126.813 404.74C125.891 404.961 124.904 405.237 123.742 405.438C121.409 405.958 119.654 404 117.759 402.933C116.626 402.112 113.95 401.038 113.354 398.879ZM92.6006 250.562L92.7305 250.453C93.0343 250.419 93.2395 250.136 93.3899 249.788C93.8917 248.916 94.2577 247.974 94.4755 246.992C94.8149 245.155 94.6322 243.093 93.5615 241.555C92.4908 240.018 90.8382 239.635 89.1917 240.575C88.0541 241.199 85.9604 241.74 86.2937 243.454C87.2038 245.46 89.3912 246.612 90.5612 248.399C90.9134 248.811 91.2177 249.261 91.4682 249.741C91.7852 250.25 91.9725 250.87 92.6011 250.562H92.6006ZM89.3813 196.647C90.0822 195.504 91.9132 194.519 92.617 194.038C93.4064 193.264 93.9567 192.469 94.2136 191.588C91.5892 189.915 88.025 189.367 85.5831 189.757C84.2376 190.002 83.4717 191.2 82.7163 192.278C84.6574 194.192 86.5886 196.225 88.4649 198.193C88.6877 197.633 88.9971 197.112 89.3817 196.647H89.3813ZM82.0117 197.635C79.9653 199.023 80.5869 202.267 82.5486 203.942C84.1521 205.586 87.1972 206.572 89.0086 208.595C90.165 209.838 90.7578 211.334 91.7195 212.742C91.9277 213.121 92.4187 213.705 92.6814 214.15C92.9249 213.966 93.127 213.732 93.2747 213.465C93.4223 213.198 93.5122 212.903 93.5386 212.598C93.5649 212.294 93.527 211.988 93.4275 211.699C93.3279 211.411 93.1688 211.146 92.9606 210.923C92.69 210.578 92.3432 210.301 91.9473 210.113C92.1611 210.493 92.289 210.915 92.3219 211.349C92.3857 211.524 92.3903 211.715 92.3349 211.892C92.1298 212.176 91.4128 212.114 91.4438 211.755C91.3526 210.724 90.739 209.467 89.7359 208.537C88.5456 206.989 84.4908 205.856 85.0421 202.954C85.2651 201.769 85.9454 200.865 86.7893 200.155L87.3087 199.719C86.2613 198.605 85.2139 197.491 84.2213 196.442C83.5291 196.803 82.6616 197.089 82.0121 197.634L82.0117 197.635ZM49.985 159.406C50.7652 161.521 50.517 164.389 52.2916 165.445C52.8139 165.671 52.9099 165.258 52.7536 164.281C52.6726 163.131 52.0044 161.808 51.1311 160.77C50.8141 160.261 50.3671 159.861 49.985 159.406ZM94.6326 172.842C94.1 172.736 93.1883 172.838 93.1262 173.555C93.0331 174.63 93.0595 175.716 93.5198 176.659C93.7277 177.038 93.8603 177.591 94.3487 177.513L94.4137 177.459C94.4579 177.643 94.7515 177.729 94.9357 177.684C95.3593 177.661 95.4553 177.248 95.5408 176.954C95.8625 176.019 96.2051 174.845 95.7448 173.902C95.6973 173.629 95.5635 173.379 95.3633 173.189C95.1631 172.998 94.907 172.877 94.6326 172.842ZM112.6 287.268C113.073 288.754 114.646 290.756 116.08 290.88C117.729 290.601 116.772 287.749 115.691 286.331C115.002 285.248 113.412 284.148 112.269 283.447C112.274 284.771 112.28 286.096 112.6 287.268ZM137.476 294.056C136.144 294.844 134.494 295.122 132.995 295.053C133.092 297.409 133.07 299.755 131.982 301.888C130.559 304.414 127.505 306.316 125.288 303.416C124.961 303.026 124.698 302.582 124.425 302.258C123.199 302.513 121.94 302.464 121.007 302.805C118.862 303.943 119.33 306.873 121.604 307.732C123.235 308.355 125.007 308.749 126.273 310.123C127.037 311.032 127.606 312.105 128.435 312.959L128.708 313.283L128.719 313.164C128.648 311.894 127.652 310.182 127.787 308.629C128.196 305.293 131.39 303.162 134.099 301.771C135.607 301.058 136.621 299.762 138.236 299.179C138.605 299.091 139.039 298.948 139.408 298.859C138.716 297.113 138.069 295.552 137.476 294.056ZM189.099 393.816C189.547 394.327 189.963 394.866 190.344 395.429L190.583 395.45C191.235 395.566 191.833 395.618 192.202 395.53C192.994 395.418 194.261 394.685 194.324 393.968C194.468 392.295 192.369 391.51 190.805 391.496C190.447 391.465 189.265 391.904 188.885 392.112C188.635 392.211 188.441 392.375 188.126 392.528C188.418 392.981 188.743 393.412 189.099 393.817V393.816Z" fill="url(#paint2_linear_293_91)"/>
<path fill-rule="evenodd" clip-rule="evenodd" d="M262.579 30.3174C262.909 29.8057 263.601 29.1968 264.382 28.5554C266.697 26.6715 270.003 24.6711 270.319 24.4574C275.338 21.147 280.614 18.11 285.678 14.8372C287.873 13.4107 290.037 11.9414 292.126 10.384C292.802 9.8696 297.311 6.7975 298.288 4.60406C298.531 4.08939 298.6 3.5093 298.483 2.95206C298.401 2.65367 298.257 2.37597 298.06 2.13726C297.863 1.89855 297.618 1.70422 297.341 1.56705C296.289 0.994224 294.831 0.827169 293.238 0.949004C290.247 1.17615 286.7 2.37943 284.882 2.8678C278.845 4.51596 272.9 6.48386 267.073 8.76317C261.211 11.0252 255.47 13.518 249.819 16.0757C233.738 23.3625 217.898 31.2231 202.568 39.7627C187.028 48.4269 172.014 57.7931 157.842 67.9859C151.364 72.6349 144.226 77.5997 138.079 83.1917C133.75 87.1359 129.918 91.3958 127.138 96.0654C127.037 96.2351 126.971 96.423 126.943 96.6182C126.915 96.8135 126.926 97.0123 126.975 97.2034C127.024 97.3945 127.11 97.574 127.229 97.7318C127.347 97.8896 127.495 98.0225 127.665 98.1229C127.835 98.2234 128.023 98.2895 128.218 98.3173C128.413 98.3452 128.612 98.3344 128.803 98.2854C128.994 98.2364 129.174 98.1503 129.331 98.0319C129.489 97.9136 129.622 97.7653 129.723 97.5956C132.338 93.1515 135.959 89.1024 140.048 85.3373C146.074 79.7855 153.093 74.8529 159.45 70.2287C173.502 60.0204 188.381 50.6269 203.786 41.9355C219.01 33.352 234.761 25.455 250.751 18.1203C256.342 15.5597 262.038 13.0611 267.854 10.7933C273.607 8.52125 279.477 6.55673 285.438 4.90802C286.956 4.4975 289.706 3.55152 292.291 3.16164C293.854 2.92438 295.342 2.8519 296.334 3.39334C296.62 3.54636 296.394 3.7925 296.214 4.07479C295.797 4.68895 295.302 5.24641 294.741 5.73319C293.208 7.14792 291.299 8.42947 290.894 8.73901C288.849 10.2731 286.716 11.7217 284.566 13.1273C279.502 16.4144 274.241 19.4605 269.222 22.7827C268.801 23.06 263.661 26.2019 261.557 28.4174C261.128 28.8399 260.786 29.3421 260.55 29.8958C260.235 30.7715 260.46 31.4557 261.257 31.9052C262.79 32.7488 265.495 32.7579 268.606 32.2344C274.257 31.2795 281.335 28.7218 283.965 28.0424C296.289 24.8772 308.613 21.6936 321.087 18.9977C329.338 17.2109 337.664 15.6406 346.08 14.4239C375.702 10.1626 407.564 9.1105 439.019 11.6825C470.595 14.266 501.765 20.5031 529.81 30.7674C529.995 30.8345 530.192 30.8644 530.389 30.8553C530.586 30.8463 530.78 30.7986 530.958 30.7148C531.137 30.631 531.297 30.5129 531.43 30.3671C531.563 30.2214 531.666 30.0508 531.733 29.8653C531.801 29.6797 531.83 29.4828 531.821 29.2857C531.812 29.0886 531.765 28.8952 531.681 28.7165C531.597 28.5379 531.479 28.3775 531.333 28.2445C531.187 28.1115 531.017 28.0085 530.831 27.9414C502.517 17.7461 471.061 11.6331 439.215 9.17782C407.579 6.74112 375.537 7.91074 345.764 12.3166C337.319 13.5643 328.947 15.1723 320.636 16.9874C308.162 19.7174 295.808 22.9202 283.469 26.1114C280.87 26.785 273.866 29.3273 268.275 30.2704C265.93 30.6633 263.871 30.8254 262.579 30.3174ZM592.706 402.075C601.663 400.651 610.83 397.682 619.322 393.42C627.813 389.151 635.628 383.59 641.789 376.853C647.62 370.61 651.844 362.755 657.284 356.071C659.554 353.276 662.048 350.698 664.979 348.54C667.91 346.375 671.171 344.933 674.597 343.95C678.054 342.954 681.691 342.438 685.313 342.136C685.709 342.097 686.072 341.902 686.325 341.595C686.577 341.288 686.697 340.894 686.66 340.498C686.622 340.103 686.429 339.738 686.123 339.484C685.817 339.23 685.423 339.108 685.028 339.144C681.225 339.554 677.423 340.199 673.801 341.333C670.119 342.486 666.617 344.137 663.476 346.56C660.44 348.897 657.87 351.672 655.511 354.656C650.206 361.386 646.074 369.228 640.331 375.5C634.26 381.971 626.61 387.323 618.284 391.319C610.067 395.243 601.291 397.868 592.269 399.1C592.07 399.124 591.878 399.188 591.704 399.287C591.53 399.387 591.378 399.521 591.256 399.68C591.135 399.839 591.046 400.021 590.996 400.215C590.946 400.409 590.935 400.611 590.964 400.81C590.993 401.008 591.062 401.198 591.165 401.37C591.269 401.541 591.406 401.69 591.568 401.808C591.73 401.926 591.914 402.01 592.11 402.055C592.305 402.101 592.507 402.107 592.705 402.073L592.706 402.075Z" fill="#E3DBF9"/>
<path fill-rule="evenodd" clip-rule="evenodd" d="M346.163 270.244C361.245 307.908 413.013 367.749 459.523 367.741C526.706 367.745 598.624 191.809 598.624 191.809C625.778 173.318 609.155 147.644 596.885 126.118L578.193 172.258C578.193 172.258 497.322 285.364 462.466 280.269C427.607 275.184 388.426 143.401 369.043 141.729C349.66 140.056 331.085 232.57 346.163 270.244Z" fill="#FB9C9A"/>
<path fill-rule="evenodd" clip-rule="evenodd" d="M542.574 176.775C507.031 130.914 485.78 65.5331 426.039 45.1286C384.123 30.8105 346.446 52.4732 322.7 87.1195C285.729 141.072 273.78 218.487 295.227 280.486C326.021 369.505 430.293 399.578 512.306 364.98C537.72 354.257 562.984 338.196 577.066 313.726C587.586 295.446 597.52 259.3 579.02 241.82C572.918 236.051 562.638 238.482 557.408 231.831C553.425 226.78 555.379 220.056 553.065 214.416C549.292 205.165 535 203.104 526.268 204.215L542.574 176.775Z" fill="#9EADFF"/>
<path fill-rule="evenodd" clip-rule="evenodd" d="M340.148 318.207C361.661 292.046 394.458 179.587 377.686 148.027C360.915 116.468 271.989 82.8198 239.521 128.849C210.986 169.295 231.835 273.431 248.607 304.991C263.067 332.218 320.565 342.021 340.148 318.207Z" fill="#9EADFF"/>
<path fill-rule="evenodd" clip-rule="evenodd" d="M333.298 177.596C332.167 174.601 329.892 172.178 326.974 170.859C324.056 169.541 320.734 169.435 317.738 170.564L148.171 234.563C146.688 235.123 145.331 235.97 144.175 237.055C143.02 238.139 142.09 239.441 141.437 240.886C140.785 242.33 140.424 243.889 140.374 245.473C140.324 247.057 140.587 248.636 141.147 250.118L241.223 515.273C242.353 518.268 244.625 520.691 247.541 522.011C250.457 523.33 253.778 523.437 256.773 522.309L426.34 458.31C429.335 457.178 431.758 454.904 433.077 451.987C434.396 449.069 434.503 445.747 433.374 442.751L333.298 177.596Z" fill="white"/>
<path fill-rule="evenodd" clip-rule="evenodd" d="M205.321 260.778C205.025 259.993 204.429 259.359 203.666 259.014C202.902 258.668 202.032 258.64 201.247 258.936L172.072 269.947C171.288 270.243 170.654 270.839 170.309 271.603C169.964 272.367 169.936 273.237 170.232 274.021L170.233 274.023C170.529 274.808 171.124 275.442 171.888 275.787C172.652 276.133 173.522 276.16 174.306 275.865L203.481 264.853C204.265 264.557 204.9 263.961 205.245 263.198C205.59 262.434 205.618 261.564 205.322 260.78L205.321 260.778ZM200.737 248.631C200.44 247.847 199.845 247.212 199.081 246.867C198.317 246.521 197.448 246.493 196.663 246.789L167.488 257.8C166.704 258.097 166.07 258.693 165.724 259.456C165.379 260.22 165.351 261.09 165.647 261.875V261.877C165.944 262.661 166.539 263.295 167.303 263.641C168.067 263.986 168.936 264.014 169.721 263.718L198.897 252.707C199.681 252.411 200.315 251.815 200.66 251.052C201.005 250.288 201.033 249.418 200.738 248.634L200.737 248.631Z" fill="#E3E3FE"/>
<path fill-rule="evenodd" clip-rule="evenodd" d="M332.793 176.257C332.299 174.95 331.553 173.753 330.597 172.734C329.642 171.715 328.494 170.895 327.221 170.32C325.948 169.744 324.574 169.426 323.178 169.381C321.782 169.337 320.39 169.568 319.083 170.062L146.839 235.071C145.532 235.564 144.335 236.309 143.316 237.265C142.297 238.221 141.476 239.368 140.901 240.641C140.325 241.914 140.006 243.288 139.962 244.684C139.917 246.08 140.148 247.472 140.642 248.779V248.781C141.135 250.088 141.881 251.285 142.837 252.304C143.793 253.322 144.94 254.143 146.213 254.718C147.486 255.293 148.86 255.612 150.257 255.657C151.653 255.701 153.044 255.469 154.351 254.976L326.595 189.967C327.902 189.474 329.1 188.728 330.118 187.773C331.137 186.817 331.958 185.67 332.534 184.397C333.109 183.124 333.428 181.75 333.473 180.354C333.517 178.957 333.286 177.566 332.793 176.259V176.257Z" fill="white"/>
<path fill-rule="evenodd" clip-rule="evenodd" d="M287.391 329.664C287.281 329.676 287.17 329.651 287.076 329.593C286.981 329.535 286.909 329.447 286.87 329.344L265.941 273.892C265.022 271.461 263.177 269.496 260.809 268.426C258.442 267.356 255.747 267.27 253.316 268.186L253.308 268.189C252.105 268.643 251.002 269.329 250.065 270.21C249.127 271.09 248.371 272.146 247.842 273.318C247.313 274.49 247.02 275.756 246.98 277.041C246.94 278.327 247.153 279.607 247.609 280.81L268.708 336.713V336.715L268.7 336.718L267.781 337.065C267.527 337.162 267.246 337.162 266.993 337.065C266.739 336.967 266.53 336.779 266.407 336.536C263.801 331.469 250.566 305.714 243.837 292.625C243.32 291.619 242.611 290.725 241.749 289.993C240.887 289.261 239.889 288.707 238.812 288.361C237.736 288.015 236.602 287.884 235.475 287.977C234.348 288.069 233.25 288.383 232.244 288.899C232.236 288.902 232.236 288.902 232.237 288.903C231.23 289.42 230.336 290.13 229.604 290.992C228.872 291.855 228.317 292.853 227.971 293.93C227.625 295.007 227.494 296.142 227.586 297.27C227.679 298.397 227.993 299.495 228.51 300.502C232.96 309.159 240.328 323.495 246.055 334.637C251.556 345.347 256.443 356.361 260.694 367.626C260.694 367.626 252.716 359.5 246.47 353.134C244.525 351.154 241.873 350.028 239.097 350.003C236.322 349.978 233.65 351.056 231.669 353V353.002C230.691 353.963 229.912 355.109 229.378 356.373C228.844 357.637 228.566 358.994 228.559 360.366C228.553 361.738 228.818 363.098 229.34 364.367C229.861 365.636 230.629 366.789 231.599 367.759C238.595 374.771 249.416 385.596 258.887 395.085C264.718 400.923 272.111 404.955 280.178 406.696C288.244 408.436 296.642 407.812 304.362 404.898C326.735 396.454 338.027 371.474 329.584 349.104L325.956 339.491C325.956 339.491 322.325 302.01 320.65 284.702C320.429 282.428 319.314 280.335 317.55 278.883C315.786 277.431 313.517 276.74 311.243 276.96V276.959C308.968 277.179 306.874 278.293 305.421 280.057C303.968 281.821 303.275 284.09 303.494 286.364C304.751 299.288 306.976 322.273 306.976 322.273L306.805 322.338C306.628 322.358 306.451 322.314 306.304 322.214C306.157 322.115 306.05 321.966 306.004 321.794C304.707 316.827 297.458 289.064 293.542 274.069C292.876 271.52 291.225 269.34 288.952 268.008C286.679 266.676 283.971 266.301 281.422 266.965L281.414 266.968C280.152 267.297 278.967 267.872 277.927 268.66C276.887 269.447 276.012 270.432 275.353 271.558C274.694 272.683 274.263 273.928 274.085 275.22C273.907 276.513 273.986 277.827 274.316 279.089C278.752 296.075 287.508 329.622 287.508 329.622L287.391 329.664Z" fill="url(#paint3_linear_293_91)"/>
<path fill-rule="evenodd" clip-rule="evenodd" d="M397.376 398.29L404.906 418.241C406.03 421.22 405.924 424.523 404.613 427.424C403.302 430.325 400.892 432.587 397.914 433.711L376.854 441.66L374.892 436.46L395.952 428.511C396.745 428.213 397.472 427.761 398.09 427.182C398.709 426.603 399.207 425.907 399.557 425.135C399.906 424.363 400.101 423.53 400.128 422.683C400.156 421.836 400.016 420.992 399.718 420.199L392.188 400.248L397.376 398.29ZM243.424 456.396L250.953 476.347C251.251 477.139 251.702 477.865 252.281 478.483C252.86 479.101 253.556 479.598 254.327 479.947C255.098 480.296 255.931 480.489 256.777 480.516C257.624 480.543 258.467 480.403 259.259 480.103L280.32 472.155L282.281 477.354L261.221 485.303C258.242 486.427 254.939 486.321 252.038 485.01C249.137 483.698 246.875 481.288 245.751 478.31L238.221 458.359L243.424 456.396ZM207.215 278.461L209.178 283.661L188.118 291.61C187.325 291.908 186.6 292.36 185.982 292.939C185.364 293.518 184.867 294.214 184.519 294.985C184.17 295.757 183.977 296.59 183.951 297.436C183.924 298.282 184.065 299.125 184.365 299.917L191.895 319.868L186.694 321.831L179.163 301.88C178.04 298.901 178.145 295.598 179.456 292.697C180.767 289.796 183.177 287.535 186.155 286.41L207.215 278.461ZM301.787 242.768L322.848 234.819C325.826 233.695 329.13 233.801 332.031 235.112C334.932 236.424 337.193 238.834 338.318 241.812L345.848 261.763L340.658 263.721L333.129 243.77C332.829 242.978 332.376 242.252 331.796 241.635C331.215 241.017 330.519 240.52 329.746 240.172C328.974 239.823 328.141 239.631 327.294 239.604C326.447 239.578 325.603 239.719 324.81 240.019L303.75 247.968L301.787 242.768Z" fill="#E3E3FE"/>
<path d="M257.821 435.546C258.832 435.165 259.76 435.228 260.606 435.735C261.611 436.334 262.488 437.625 263.237 439.61C263.984 441.589 264.168 443.145 263.812 444.269C263.522 445.194 262.864 445.85 261.853 446.23C261.385 446.423 260.877 446.501 260.372 446.459C259.867 446.416 259.379 446.253 258.95 445.985C258.02 445.44 257.19 444.161 256.432 442.152C255.688 440.183 255.494 438.636 255.849 437.513C256.153 436.583 256.81 435.928 257.821 435.546ZM258.448 437.209C258.208 437.298 258.007 437.468 257.878 437.69C257.741 438.002 257.697 438.349 257.753 438.686C257.815 439.255 258.072 440.156 258.535 441.384C258.998 442.612 259.378 443.432 259.673 443.845C259.98 444.254 260.242 444.504 260.494 444.583C260.732 444.665 260.991 444.66 261.226 444.567C261.462 444.48 261.659 444.311 261.783 444.092C261.931 443.782 261.975 443.432 261.907 443.095C261.859 442.526 261.592 441.633 261.128 440.405C260.665 439.177 260.286 438.357 259.991 437.944C259.696 437.531 259.422 437.283 259.181 437.198C258.943 437.115 258.683 437.119 258.448 437.209ZM265.945 432.48C266.956 432.098 267.885 432.161 268.73 432.668C269.735 433.267 270.612 434.559 271.361 436.543C272.108 438.523 272.304 440.074 271.949 441.197C271.646 442.127 270.989 442.783 269.978 443.165C269.509 443.356 269.001 443.433 268.497 443.391C267.992 443.348 267.505 443.186 267.074 442.919C266.158 442.37 265.314 441.095 264.556 439.087C263.813 437.117 263.619 435.57 263.986 434.442C264.277 433.517 264.934 432.861 265.945 432.48ZM266.573 434.142C266.335 434.228 266.137 434.398 266.015 434.619C265.867 434.93 265.819 435.28 265.878 435.62C265.94 436.189 266.209 437.086 266.672 438.313C267.136 439.541 267.515 440.361 267.81 440.774C268.105 441.188 268.378 441.433 268.619 441.517C268.857 441.596 269.116 441.59 269.351 441.501C269.586 441.411 269.783 441.243 269.908 441.026C270.056 440.714 270.104 440.364 270.045 440.024C269.985 439.459 269.73 438.562 269.267 437.334C268.803 436.106 268.424 435.286 268.129 434.873C267.822 434.464 267.56 434.212 267.306 434.131C267.068 434.046 266.808 434.05 266.572 434.142H266.573ZM279.777 439.262L277.779 440.016L274.927 432.458C274.445 433.429 273.755 434.282 272.906 434.956L272.219 433.137C272.755 432.678 273.207 432.131 273.557 431.518C273.972 430.878 274.193 430.13 274.192 429.367L275.812 428.755L279.777 439.262ZM287.11 436.494L285.1 437.253L282.247 429.695C281.766 430.666 281.076 431.519 280.227 432.193L279.54 430.374C280.075 429.915 280.528 429.368 280.877 428.755C281.293 428.115 281.514 427.367 281.512 426.604L283.144 425.988L287.11 436.494ZM294.43 433.731L292.421 434.49L289.568 426.932C289.086 427.903 288.396 428.756 287.547 429.431L286.86 427.611C287.398 427.149 287.854 426.6 288.21 425.988C288.618 425.346 288.834 424.601 288.833 423.84L290.464 423.224L294.43 433.731ZM296.848 420.816C297.859 420.435 298.787 420.498 299.633 421.005C300.638 421.604 301.515 422.896 302.264 424.88C303.011 426.859 303.207 428.411 302.852 429.534C302.549 430.464 301.892 431.12 300.881 431.501C300.412 431.693 299.904 431.77 299.399 431.727C298.895 431.685 298.407 431.523 297.977 431.256C297.06 430.707 296.217 429.432 295.459 427.423C294.716 425.454 294.522 423.907 294.889 422.779C295.18 421.854 295.837 421.198 296.848 420.816ZM297.475 422.479C297.239 422.567 297.042 422.736 296.918 422.955C296.769 423.265 296.725 423.615 296.793 423.951C296.842 424.526 297.111 425.422 297.574 426.65C298.038 427.878 298.417 428.697 298.712 429.111C299.007 429.524 299.281 429.77 299.521 429.854C299.759 429.935 300.018 429.929 300.253 429.839C300.493 429.75 300.694 429.58 300.823 429.359C300.96 429.045 301.003 428.699 300.947 428.361C300.887 427.797 300.632 426.899 300.169 425.672C299.705 424.444 299.326 423.624 299.031 423.211C298.736 422.798 298.462 422.55 298.208 422.469C297.971 422.384 297.71 422.387 297.475 422.479ZM304.985 417.745C305.996 417.364 306.924 417.427 307.77 417.934C308.775 418.533 309.64 419.829 310.389 421.813C311.136 423.793 311.332 425.344 310.977 426.468C310.686 427.393 310.028 428.049 309.017 428.429C308.549 428.622 308.041 428.7 307.536 428.658C307.031 428.615 306.543 428.452 306.114 428.184C305.184 427.64 304.354 426.36 303.596 424.351C302.852 422.382 302.658 420.835 303.014 419.712C303.317 418.783 303.962 418.131 304.985 417.745ZM305.612 419.408C305.372 419.497 305.171 419.667 305.042 419.889C304.905 420.202 304.861 420.548 304.917 420.885C304.979 421.455 305.236 422.356 305.699 423.583C306.163 424.811 306.542 425.631 306.837 426.045C307.132 426.458 307.406 426.704 307.658 426.782C307.896 426.865 308.155 426.859 308.39 426.766C308.626 426.679 308.823 426.511 308.947 426.292C309.096 425.981 309.139 425.631 309.071 425.294C309.023 424.725 308.756 423.832 308.292 422.604C307.829 421.377 307.45 420.557 307.155 420.143C306.86 419.73 306.586 419.483 306.345 419.397C306.107 419.315 305.847 419.318 305.612 419.408ZM313.109 414.679C314.12 414.297 315.049 414.36 315.894 414.868C316.899 415.467 317.776 416.758 318.525 418.742C319.272 420.722 319.468 422.273 319.113 423.397C318.81 424.327 318.153 424.982 317.142 425.364C316.674 425.557 316.166 425.635 315.661 425.592C315.156 425.55 314.668 425.387 314.238 425.118C313.322 424.569 312.478 423.295 311.72 421.286C310.977 419.316 310.783 417.77 311.15 416.642C311.441 415.716 312.098 415.061 313.109 414.679ZM313.737 416.342C313.499 416.428 313.301 416.597 313.179 416.818C313.031 417.129 312.983 417.479 313.042 417.819C313.104 418.388 313.36 419.289 313.824 420.517C314.288 421.745 314.666 422.565 314.974 422.974C315.269 423.387 315.542 423.633 315.783 423.718C316.021 423.797 316.28 423.791 316.515 423.702C316.75 423.612 316.947 423.445 317.072 423.227C317.22 422.915 317.268 422.565 317.209 422.225C317.149 421.66 316.894 420.763 316.431 419.535C315.967 418.307 315.588 417.487 315.281 417.079C314.986 416.666 314.723 416.414 314.47 416.333C314.233 416.247 313.972 416.25 313.737 416.342H313.737ZM326.941 421.461L324.943 422.215L322.091 414.657C321.609 415.628 320.919 416.482 320.07 417.156L319.383 415.336C319.919 414.877 320.371 414.33 320.721 413.718C321.132 413.075 321.352 412.329 321.356 411.566L322.976 410.955L326.941 421.461ZM334.262 418.698L332.264 419.452L329.411 411.894C328.93 412.865 328.24 413.719 327.391 414.393L326.704 412.573C327.239 412.114 327.692 411.567 328.041 410.955C328.457 410.314 328.678 409.567 328.676 408.803L330.296 408.192L334.262 418.698ZM341.594 415.931L339.584 416.689L336.731 409.131C336.25 410.103 335.56 410.956 334.711 411.63L334.024 409.81C334.559 409.352 335.012 408.804 335.361 408.192C335.777 407.551 335.998 406.804 335.996 406.04L337.628 405.424L341.594 415.931ZM348.915 413.168L346.905 413.926L344.053 406.368C343.571 407.34 342.881 408.193 342.032 408.867L341.345 407.047C341.885 406.588 342.341 406.039 342.695 405.424C343.102 404.782 343.318 404.037 343.318 403.277L344.949 402.661L348.915 413.168ZM351.333 400.253C352.356 399.867 353.272 399.934 354.117 400.442C355.122 401.04 356 402.332 356.749 404.316C357.496 406.296 357.692 407.847 357.336 408.97C357.033 409.9 356.389 410.551 355.365 410.938C354.896 411.129 354.389 411.207 353.884 411.164C353.379 411.121 352.892 410.96 352.462 410.692C351.545 410.143 350.702 408.868 349.944 406.86C349.2 404.89 349.006 403.343 349.374 402.215C349.665 401.29 350.322 400.634 351.333 400.253ZM351.96 401.915C351.724 402.003 351.526 402.172 351.403 402.392C351.254 402.701 351.21 403.051 351.278 403.388C351.327 403.962 351.596 404.858 352.059 406.086C352.523 407.314 352.902 408.134 353.197 408.547C353.492 408.96 353.766 409.206 354.006 409.29C354.244 409.37 354.503 409.364 354.738 409.274C354.978 409.185 355.179 409.015 355.308 408.794C355.445 408.481 355.488 408.134 355.432 407.797C355.372 407.232 355.117 406.335 354.653 405.107C354.19 403.879 353.811 403.059 353.516 402.646C353.221 402.233 352.946 401.985 352.693 401.904C352.455 401.819 352.195 401.823 351.96 401.915ZM359.469 397.182C360.48 396.8 361.409 396.863 362.254 397.371C363.259 397.969 364.136 399.261 364.886 401.245C365.633 403.225 365.816 404.781 365.461 405.904C365.17 406.829 364.513 407.485 363.502 407.866C363.033 408.059 362.525 408.137 362.02 408.094C361.515 408.051 361.028 407.889 360.598 407.62C359.669 407.076 358.838 405.796 358.08 403.788C357.337 401.818 357.143 400.272 357.498 399.148C357.801 398.219 358.458 397.563 359.469 397.182ZM360.097 398.844C359.857 398.934 359.655 399.104 359.527 399.325C359.389 399.638 359.346 399.984 359.402 400.321C359.464 400.891 359.72 401.792 360.184 403.02C360.647 404.248 361.026 405.067 361.321 405.481C361.617 405.894 361.89 406.14 362.142 406.219C362.38 406.301 362.64 406.295 362.874 406.203C363.11 406.115 363.308 405.947 363.432 405.728C363.58 405.418 363.624 405.068 363.556 404.73C363.508 404.161 363.24 403.269 362.777 402.041C362.314 400.813 361.935 399.993 361.639 399.58C361.344 399.166 361.07 398.919 360.829 398.834C360.591 398.751 360.332 398.754 360.096 398.844H360.097ZM367.594 394.115C368.605 393.734 369.533 393.797 370.379 394.304C371.384 394.903 372.261 396.195 373.01 398.179C373.757 400.158 373.953 401.71 373.598 402.833C373.295 403.763 372.638 404.419 371.627 404.8C371.158 404.993 370.65 405.071 370.145 405.029C369.64 404.986 369.153 404.823 368.723 404.555C367.806 404.006 366.963 402.731 366.205 400.722C365.462 398.753 365.268 397.206 365.635 396.078C365.926 395.153 366.583 394.497 367.594 394.115ZM368.221 395.778C367.984 395.864 367.786 396.033 367.664 396.254C367.516 396.566 367.468 396.915 367.527 397.255C367.589 397.825 367.845 398.726 368.309 399.953C368.772 401.181 369.163 401.997 369.458 402.41C369.753 402.823 370.027 403.069 370.267 403.153C370.505 403.235 370.765 403.23 370.999 403.137C371.236 403.052 371.434 402.883 371.556 402.662C371.704 402.35 371.752 402 371.693 401.66C371.633 401.096 371.378 400.198 370.914 398.971C370.451 397.743 370.072 396.923 369.765 396.514C369.47 396.101 369.195 395.853 368.954 395.768C368.717 395.683 368.456 395.686 368.221 395.778Z" fill="#203BDB"/>
<path d="M269.927 462.351L267.918 463.11L265.065 455.552C264.583 456.523 263.893 457.376 263.044 458.05L262.357 456.23C262.893 455.772 263.345 455.225 263.695 454.612C264.111 453.972 264.331 453.224 264.33 452.461L265.961 451.845L269.927 462.351ZM277.248 459.588L275.238 460.347L272.386 452.789C271.906 453.757 271.22 454.608 270.377 455.284L269.69 453.464C270.224 453.003 270.676 452.456 271.028 451.846C271.44 451.206 271.657 450.459 271.651 449.698L273.282 449.082L277.248 459.588ZM284.569 456.825L282.559 457.584L279.706 450.026C279.226 450.994 278.541 451.845 277.698 452.521L277.011 450.701C277.544 450.24 277.996 449.693 278.348 449.083C278.759 448.44 278.98 447.694 278.984 446.931L280.604 446.32L284.569 456.825ZM286.998 443.906C288.009 443.524 288.938 443.587 289.783 444.094C290.776 444.698 291.654 445.99 292.403 447.974C293.15 449.953 293.345 451.505 292.99 452.628C292.699 453.553 292.042 454.209 291.031 454.59C290.56 454.782 290.051 454.86 289.544 454.818C289.038 454.776 288.548 454.616 288.115 454.349C287.199 453.8 286.368 452.52 285.61 450.512C284.866 448.542 284.672 446.996 285.027 445.872C285.318 444.947 285.975 444.292 286.998 443.906ZM287.626 445.568C287.386 445.658 287.184 445.828 287.056 446.049C286.907 446.359 286.863 446.709 286.931 447.046C286.993 447.615 287.25 448.516 287.713 449.744C288.176 450.972 288.555 451.792 288.851 452.205C289.146 452.618 289.419 452.864 289.66 452.948C289.902 453.027 290.165 453.02 290.403 452.928C290.638 452.838 290.835 452.67 290.961 452.453C291.098 452.139 291.141 451.793 291.084 451.455C291.025 450.89 290.769 449.993 290.306 448.765C289.843 447.537 289.463 446.718 289.168 446.304C288.873 445.891 288.599 445.644 288.358 445.558C288.12 445.477 287.862 445.481 287.626 445.568ZM295.123 440.839C296.134 440.458 297.062 440.521 297.908 441.028C298.913 441.627 299.79 442.919 300.539 444.903C301.286 446.882 301.482 448.434 301.115 449.562C300.824 450.487 300.167 451.143 299.156 451.524C298.687 451.716 298.179 451.794 297.674 451.752C297.169 451.709 296.682 451.547 296.252 451.278C295.335 450.729 294.492 449.454 293.734 447.445C292.991 445.476 292.797 443.929 293.152 442.806C293.455 441.876 294.112 441.221 295.123 440.839ZM295.751 442.502C295.513 442.588 295.315 442.757 295.193 442.978C295.045 443.29 294.997 443.639 295.056 443.979C295.118 444.549 295.374 445.45 295.838 446.677C296.301 447.905 296.68 448.725 296.975 449.138C297.283 449.547 297.544 449.798 297.797 449.876C298.034 449.959 298.294 449.953 298.528 449.86C298.765 449.775 298.963 449.606 299.086 449.385C299.234 449.075 299.277 448.725 299.209 448.388C299.161 447.819 298.906 446.921 298.443 445.694C297.98 444.466 297.588 443.651 297.293 443.236C296.998 442.822 296.724 442.576 296.483 442.49C296.245 442.408 295.986 442.412 295.751 442.502L295.751 442.502ZM303.247 437.773C304.258 437.391 305.186 437.454 306.032 437.961C307.037 438.561 307.914 439.852 308.663 441.836C309.41 443.816 309.606 445.367 309.251 446.49C308.948 447.42 308.291 448.076 307.279 448.458C306.81 448.649 306.303 448.726 305.798 448.684C305.293 448.641 304.806 448.479 304.376 448.212C303.459 447.663 302.616 446.388 301.858 444.38C301.115 442.41 300.92 440.863 301.288 439.735C301.58 438.81 302.237 438.154 303.247 437.773ZM303.874 439.435C303.638 439.523 303.44 439.692 303.317 439.912C303.168 440.221 303.124 440.571 303.192 440.908C303.241 441.482 303.51 442.378 303.973 443.606C304.437 444.834 304.816 445.654 305.111 446.067C305.406 446.481 305.68 446.726 305.92 446.811C306.158 446.891 306.417 446.885 306.651 446.795C306.892 446.706 307.093 446.536 307.222 446.315C307.359 446.002 307.402 445.655 307.346 445.318C307.286 444.753 307.031 443.856 306.567 442.628C306.104 441.4 305.725 440.58 305.43 440.167C305.134 439.754 304.86 439.506 304.607 439.426C304.37 439.34 304.11 439.344 303.875 439.436L303.874 439.435ZM317.091 444.55L315.082 445.309L312.229 437.751C311.747 438.722 311.057 439.576 310.208 440.25L309.521 438.43C310.057 437.971 310.509 437.424 310.859 436.812C311.275 436.171 311.495 435.424 311.494 434.66L313.125 434.044L317.091 444.55ZM324.413 441.787L322.403 442.546L319.55 434.988C319.069 435.959 318.379 436.813 317.53 437.487L316.843 435.667C317.378 435.208 317.831 434.661 318.18 434.049C318.596 433.408 318.817 432.661 318.816 431.897L320.447 431.281L324.413 441.787ZM331.733 439.024L329.723 439.783L326.87 432.225C326.39 433.193 325.705 434.044 324.862 434.72L324.175 432.9C324.708 432.439 325.16 431.892 325.512 431.282C325.925 430.642 326.141 429.896 326.135 429.134L327.767 428.518L331.733 439.024ZM339.054 436.262L337.044 437.02L334.191 429.462C333.711 430.43 333.026 431.281 332.183 431.957L331.496 430.137C332.029 429.677 332.481 429.129 332.833 428.519C333.244 427.876 333.465 427.13 333.469 426.367L335.089 425.756L339.054 436.262ZM341.483 423.342C342.494 422.96 343.422 423.023 344.268 423.531C345.273 424.13 346.138 425.426 346.887 427.41C347.634 429.389 347.83 430.941 347.475 432.064C347.184 432.99 346.527 433.645 345.516 434.026C345.045 434.218 344.536 434.296 344.029 434.255C343.522 434.213 343.033 434.052 342.6 433.785C341.683 433.236 340.852 431.957 340.094 429.948C339.351 427.978 339.157 426.432 339.512 425.308C339.815 424.379 340.46 423.728 341.483 423.342ZM342.111 425.005C341.87 425.094 341.669 425.264 341.541 425.486C341.403 425.799 341.36 426.145 341.416 426.482C341.478 427.051 341.734 427.952 342.198 429.18C342.661 430.408 343.04 431.228 343.335 431.641C343.63 432.054 343.904 432.3 344.156 432.379C344.394 432.461 344.654 432.456 344.888 432.363C345.123 432.274 345.32 432.106 345.445 431.888C345.594 431.578 345.637 431.228 345.569 430.891C345.522 430.322 345.254 429.429 344.791 428.201C344.327 426.973 343.948 426.153 343.653 425.74C343.358 425.327 343.084 425.079 342.843 424.994C342.605 424.913 342.346 424.917 342.11 425.005H342.111ZM349.608 420.276C350.619 419.894 351.547 419.957 352.392 420.464C353.397 421.063 354.275 422.355 355.024 424.339C355.771 426.319 355.967 427.87 355.599 428.998C355.308 429.923 354.651 430.579 353.641 430.96C353.172 431.153 352.664 431.231 352.159 431.188C351.654 431.145 351.166 430.983 350.737 430.714C349.82 430.165 348.977 428.89 348.219 426.882C347.475 424.912 347.281 423.365 347.637 422.242C347.94 421.313 348.597 420.657 349.608 420.276ZM350.235 421.938C349.998 422.024 349.8 422.194 349.678 422.415C349.53 422.726 349.482 423.076 349.54 423.415C349.602 423.985 349.859 424.886 350.322 426.114C350.786 427.342 351.165 428.161 351.472 428.571C351.767 428.984 352.03 429.235 352.281 429.314C352.519 429.397 352.778 429.391 353.013 429.299C353.25 429.213 353.448 429.044 353.57 428.824C353.718 428.512 353.766 428.162 353.707 427.822C353.647 427.257 353.391 426.36 352.928 425.132C352.465 423.904 352.086 423.084 351.779 422.675C351.483 422.262 351.209 422.014 350.968 421.929C350.73 421.845 350.471 421.849 350.235 421.938ZM363.439 427.058L361.442 427.812L358.589 420.254C358.105 421.223 357.415 422.076 356.568 422.752L355.881 420.933C356.417 420.474 356.869 419.927 357.219 419.315C357.63 418.672 357.85 417.926 357.854 417.163L359.474 416.551L363.439 427.058ZM370.76 424.295L368.762 425.049L365.91 417.491C365.428 418.462 364.738 419.315 363.889 419.99L363.202 418.17C363.738 417.711 364.19 417.164 364.54 416.552C364.955 415.911 365.176 415.164 365.175 414.4L366.795 413.789L370.76 424.295ZM373.19 411.375C374.201 410.994 375.129 411.057 375.975 411.564C376.98 412.163 377.857 413.454 378.606 415.439C379.353 417.418 379.549 418.97 379.181 420.098C378.891 421.023 378.233 421.679 377.222 422.059C376.754 422.252 376.246 422.33 375.741 422.288C375.236 422.245 374.748 422.082 374.319 421.814C373.402 421.265 372.559 419.99 371.801 417.981C371.057 416.012 370.863 414.465 371.219 413.342C371.522 412.412 372.179 411.757 373.19 411.375ZM373.817 413.038C373.58 413.124 373.382 413.293 373.26 413.514C373.112 413.826 373.064 414.175 373.122 414.515C373.184 415.085 373.441 415.985 373.904 417.213C374.368 418.441 374.747 419.261 375.042 419.674C375.349 420.083 375.611 420.334 375.863 420.412C376.101 420.495 376.361 420.489 376.595 420.396C376.832 420.311 377.03 420.142 377.152 419.921C377.3 419.61 377.348 419.259 377.289 418.919C377.229 418.355 376.962 417.462 376.498 416.235C376.035 415.008 375.656 414.187 375.361 413.774C375.066 413.36 374.791 413.113 374.55 413.028C374.312 412.945 374.053 412.948 373.817 413.038Z" fill="#203BDB"/>
<path fill-rule="evenodd" clip-rule="evenodd" d="M307.513 390.413C305.128 391.899 302.449 392.849 299.661 393.196C299.453 393.219 299.252 393.283 299.069 393.385C298.887 393.486 298.726 393.623 298.596 393.787C298.467 393.951 298.372 394.14 298.316 394.341C298.259 394.542 298.244 394.753 298.27 394.96C298.296 395.168 298.363 395.368 298.467 395.549C298.571 395.73 298.71 395.889 298.876 396.016C299.042 396.144 299.231 396.236 299.433 396.29C299.635 396.343 299.846 396.356 300.053 396.327C303.294 395.924 306.409 394.82 309.18 393.092C309.532 392.869 309.782 392.516 309.875 392.11C309.967 391.704 309.896 391.278 309.676 390.925C309.456 390.571 309.105 390.319 308.699 390.223C308.294 390.127 307.867 390.196 307.512 390.413H307.513ZM316.872 377.787C316.018 380.512 314.707 383.072 312.995 385.357C312.87 385.523 312.779 385.712 312.727 385.913C312.675 386.114 312.663 386.323 312.692 386.528C312.721 386.734 312.79 386.932 312.895 387.111C313.001 387.29 313.14 387.446 313.306 387.571C313.472 387.696 313.661 387.787 313.862 387.839C314.063 387.891 314.272 387.903 314.478 387.874C314.683 387.845 314.881 387.776 315.06 387.671C315.239 387.565 315.395 387.426 315.52 387.26C317.44 384.687 318.913 381.81 319.879 378.748C320.002 378.351 319.963 377.921 319.77 377.552C319.578 377.184 319.248 376.906 318.852 376.779C318.455 376.652 318.025 376.687 317.655 376.876C317.284 377.065 317.003 377.392 316.872 377.787ZM292.197 392.743C289.422 392.066 286.781 390.925 284.386 389.367C284.033 389.141 283.604 389.064 283.194 389.154C282.785 389.244 282.428 389.493 282.202 389.846C281.976 390.2 281.899 390.628 281.989 391.038C282.079 391.447 282.328 391.805 282.681 392.031C285.376 393.767 288.339 395.046 291.452 395.816C291.858 395.914 292.287 395.846 292.645 395.628C293.002 395.409 293.257 395.058 293.356 394.652C293.455 394.245 293.388 393.816 293.171 393.458C292.954 393.101 292.604 392.844 292.197 392.744V392.743ZM317.646 361.605C318.201 364.448 318.403 367.349 318.245 370.242C318.222 370.66 318.366 371.07 318.645 371.382C318.924 371.694 319.315 371.883 319.733 371.907C320.151 371.931 320.562 371.788 320.874 371.51C321.187 371.231 321.377 370.84 321.401 370.422C321.571 367.267 321.348 364.103 320.737 361.002C320.699 360.797 320.621 360.602 320.508 360.427C320.394 360.253 320.247 360.103 320.075 359.985C319.903 359.868 319.709 359.786 319.505 359.744C319.301 359.702 319.091 359.701 318.887 359.741C318.682 359.781 318.488 359.861 318.315 359.976C318.141 360.092 317.993 360.241 317.877 360.414C317.762 360.587 317.682 360.782 317.642 360.986C317.603 361.191 317.604 361.401 317.646 361.605H317.646ZM278.49 384.45C276.504 382.338 274.789 379.987 273.384 377.45C273.285 377.269 273.151 377.109 272.989 376.98C272.828 376.851 272.642 376.755 272.444 376.698C272.245 376.64 272.037 376.623 271.832 376.646C271.626 376.67 271.427 376.733 271.247 376.834C270.881 377.037 270.61 377.378 270.495 377.78C270.379 378.182 270.427 378.614 270.628 378.981C272.155 381.747 274.022 384.312 276.186 386.614C276.472 386.918 276.868 387.097 277.285 387.11C277.703 387.124 278.109 386.971 278.414 386.685C278.716 386.397 278.893 386.001 278.908 385.583C278.922 385.166 278.772 384.759 278.49 384.45ZM311.071 346.665C312.798 348.998 314.243 351.527 315.377 354.199C315.458 354.39 315.575 354.563 315.723 354.708C315.87 354.853 316.045 354.968 316.237 355.045C316.429 355.123 316.634 355.162 316.841 355.16C317.048 355.159 317.253 355.116 317.443 355.035C317.634 354.954 317.807 354.837 317.952 354.689C318.097 354.542 318.212 354.367 318.289 354.175C318.367 353.983 318.406 353.778 318.404 353.571C318.403 353.364 318.36 353.159 318.279 352.969C317.047 350.067 315.481 347.318 313.612 344.779C313.359 344.451 312.987 344.235 312.577 344.178C312.166 344.121 311.75 344.228 311.417 344.475C311.084 344.722 310.862 345.09 310.797 345.499C310.733 345.909 310.832 346.327 311.073 346.665H311.071ZM270.35 370.322C269.492 367.55 268.968 364.686 268.788 361.791C268.776 361.584 268.723 361.381 268.633 361.195C268.542 361.009 268.416 360.842 268.261 360.705C268.107 360.567 267.926 360.461 267.73 360.393C267.535 360.326 267.328 360.297 267.121 360.309C266.914 360.321 266.712 360.374 266.525 360.465C266.339 360.555 266.172 360.681 266.035 360.836C265.897 360.991 265.792 361.171 265.724 361.367C265.656 361.563 265.627 361.77 265.639 361.976C265.831 365.126 266.4 368.24 267.334 371.254C267.461 371.654 267.741 371.988 268.113 372.182C268.485 372.377 268.918 372.416 269.319 372.292C269.516 372.23 269.7 372.131 269.858 371.998C270.017 371.866 270.148 371.704 270.244 371.521C270.339 371.338 270.398 371.138 270.416 370.932C270.434 370.726 270.411 370.519 270.349 370.322L270.35 370.322ZM298.504 336.561C301.151 337.674 303.611 339.187 305.799 341.048C305.957 341.181 306.141 341.282 306.338 341.344C306.536 341.406 306.743 341.429 306.95 341.411C307.156 341.393 307.357 341.335 307.541 341.239C307.724 341.143 307.888 341.013 308.021 340.854C308.154 340.695 308.254 340.512 308.317 340.314C308.379 340.117 308.402 339.909 308.384 339.703C308.366 339.496 308.307 339.296 308.212 339.112C308.116 338.928 307.985 338.765 307.827 338.632C305.392 336.571 302.659 334.89 299.721 333.647C299.334 333.486 298.9 333.485 298.512 333.644C298.125 333.803 297.817 334.11 297.656 334.496C297.494 334.882 297.493 335.317 297.652 335.704C297.811 336.091 298.118 336.399 298.504 336.561V336.561ZM269.237 354.1C269.72 351.276 270.64 348.544 271.962 346.003C272.061 345.82 272.122 345.619 272.143 345.411C272.164 345.204 272.143 344.995 272.082 344.796C272.022 344.597 271.922 344.412 271.79 344.251C271.657 344.09 271.494 343.958 271.31 343.86C271.126 343.763 270.925 343.703 270.717 343.684C270.51 343.665 270.301 343.687 270.102 343.749C269.903 343.812 269.719 343.912 269.559 344.046C269.4 344.18 269.268 344.344 269.172 344.529C267.701 347.361 266.672 350.403 266.121 353.547C266.049 353.96 266.143 354.384 266.384 354.728C266.624 355.071 266.991 355.305 267.403 355.378C267.816 355.452 268.241 355.358 268.585 355.119C268.928 354.879 269.163 354.513 269.237 354.1H269.237ZM282.708 336.093L282.937 336.005C285.569 335.018 288.383 334.606 291.187 334.799C291.602 334.821 292.008 334.679 292.319 334.403C292.629 334.127 292.818 333.74 292.845 333.326C292.873 332.912 292.735 332.504 292.464 332.19C292.192 331.876 291.808 331.682 291.394 331.649C288.243 331.433 285.082 331.875 282.111 332.947L281.822 333.052C279.055 334.097 276.52 335.674 274.359 337.693C274.053 337.979 273.873 338.374 273.858 338.793C273.843 339.211 273.996 339.618 274.281 339.924C274.567 340.231 274.962 340.411 275.38 340.426C275.799 340.44 276.206 340.288 276.512 340.003C278.313 338.321 280.414 336.994 282.707 336.092L282.708 336.093ZM300.664 379.051C300.251 379.262 299.827 379.45 299.393 379.614C294.718 381.378 289.573 380.136 285.601 376.879C285.442 376.748 285.257 376.649 285.059 376.589C284.862 376.529 284.654 376.509 284.448 376.529C284.242 376.55 284.042 376.61 283.86 376.708C283.678 376.805 283.516 376.938 283.385 377.098C283.254 377.258 283.156 377.442 283.096 377.64C283.036 377.838 283.016 378.045 283.036 378.251C283.056 378.457 283.117 378.657 283.214 378.839C283.312 379.021 283.444 379.183 283.604 379.314C288.457 383.307 294.776 384.73 300.508 382.567C301.049 382.363 301.579 382.129 302.094 381.865C302.281 381.772 302.448 381.644 302.585 381.486C302.722 381.329 302.826 381.146 302.892 380.948C302.957 380.75 302.983 380.541 302.967 380.333C302.952 380.125 302.895 379.922 302.8 379.736C302.706 379.55 302.575 379.385 302.417 379.249C302.258 379.114 302.074 379.012 301.875 378.948C301.676 378.885 301.467 378.861 301.259 378.879C301.052 378.897 300.849 378.955 300.664 379.052V379.051ZM306.655 358.324C306.749 358.546 306.834 358.773 306.92 358.999C308.945 364.364 308.399 369.995 305.851 374.167C305.743 374.344 305.671 374.541 305.639 374.746C305.607 374.95 305.616 375.16 305.665 375.361C305.713 375.563 305.802 375.753 305.924 375.92C306.046 376.087 306.2 376.229 306.377 376.337C306.555 376.445 306.751 376.517 306.956 376.549C307.161 376.581 307.37 376.572 307.572 376.523C307.773 376.474 307.963 376.386 308.131 376.264C308.298 376.141 308.44 375.987 308.548 375.81C311.557 370.878 312.269 364.226 309.875 357.883C309.776 357.62 309.677 357.358 309.56 357.103C309.481 356.911 309.365 356.737 309.218 356.589C309.071 356.442 308.896 356.326 308.704 356.247C308.512 356.167 308.306 356.127 308.098 356.128C307.89 356.128 307.684 356.17 307.493 356.251C307.301 356.331 307.127 356.449 306.981 356.597C306.835 356.745 306.72 356.92 306.642 357.113C306.564 357.306 306.525 357.512 306.528 357.72C306.53 357.928 306.573 358.133 306.655 358.324ZM280.996 371.102C280.662 370.459 280.368 369.795 280.114 369.116C278.284 364.269 278.562 359.202 280.506 355.191C280.689 354.814 280.714 354.38 280.577 353.984C280.439 353.589 280.151 353.264 279.774 353.081C279.397 352.898 278.963 352.873 278.567 353.01C278.171 353.148 277.846 353.436 277.664 353.813C275.367 358.545 275.001 364.516 277.158 370.232C277.455 371.021 277.797 371.792 278.183 372.541C278.377 372.91 278.708 373.187 279.104 373.313C279.501 373.439 279.931 373.403 280.302 373.214C280.672 373.024 280.953 372.696 281.083 372.301C281.213 371.905 281.182 371.475 280.996 371.102ZM287.48 348.565L287.65 348.499C292.755 346.572 298.425 348.23 302.5 352.195C302.802 352.483 303.204 352.641 303.621 352.634C304.038 352.626 304.435 352.454 304.726 352.155C305.017 351.856 305.178 351.455 305.174 351.038C305.17 350.621 305.001 350.223 304.705 349.929C299.796 345.166 292.986 343.252 286.823 345.439L286.535 345.545C285.444 345.956 284.403 346.488 283.43 347.131C283.257 347.246 283.108 347.393 282.993 347.565C282.877 347.738 282.796 347.931 282.755 348.134C282.714 348.338 282.714 348.547 282.754 348.751C282.794 348.954 282.874 349.148 282.988 349.321C283.103 349.494 283.251 349.642 283.423 349.758C283.595 349.873 283.789 349.954 283.992 349.995C284.195 350.036 284.405 350.037 284.608 349.997C284.812 349.957 285.006 349.877 285.178 349.762C285.902 349.283 286.673 348.882 287.48 348.564L287.48 348.565ZM296.593 363.941C295.737 364.412 294.848 364.821 293.934 365.164C292.8 365.598 291.628 365.925 290.433 366.139C290.229 366.174 290.033 366.248 289.858 366.359C289.682 366.469 289.53 366.613 289.41 366.782C289.29 366.951 289.205 367.142 289.159 367.344C289.113 367.546 289.107 367.756 289.142 367.96C289.177 368.164 289.251 368.36 289.362 368.535C289.472 368.711 289.616 368.863 289.785 368.983C289.954 369.103 290.145 369.188 290.347 369.234C290.549 369.28 290.759 369.286 290.963 369.251C292.357 369.002 293.725 368.622 295.048 368.115C296.107 367.719 297.135 367.245 298.125 366.7C298.491 366.497 298.761 366.156 298.876 365.754C298.992 365.352 298.942 364.92 298.739 364.554C298.536 364.188 298.196 363.918 297.793 363.803C297.391 363.688 296.959 363.737 296.593 363.94L296.593 363.941ZM292.734 363.093L293.099 362.952C295.361 362.098 297.504 361.694 298.937 361.829C299.144 361.85 299.354 361.83 299.554 361.77C299.753 361.71 299.939 361.61 300.1 361.478C300.261 361.346 300.395 361.183 300.493 360.999C300.59 360.814 300.651 360.613 300.67 360.405C300.689 360.197 300.668 359.988 300.606 359.789C300.544 359.59 300.443 359.405 300.309 359.245C300.175 359.085 300.011 358.953 299.826 358.857C299.641 358.761 299.439 358.702 299.231 358.685C297.505 358.526 294.949 358.916 292.247 359.901L291.984 359.999C289.632 360.886 287.648 362.041 286.356 363.153C286.196 363.287 286.066 363.452 285.971 363.638C285.876 363.824 285.819 364.026 285.802 364.234C285.786 364.442 285.811 364.651 285.876 364.849C285.941 365.047 286.045 365.231 286.181 365.389C286.317 365.546 286.483 365.676 286.67 365.769C286.856 365.862 287.06 365.918 287.268 365.932C287.476 365.947 287.684 365.92 287.882 365.853C288.079 365.786 288.262 365.681 288.418 365.543C289.418 364.68 290.945 363.804 292.734 363.093Z" fill="#6562F9"/>
<path fill-rule="evenodd" clip-rule="evenodd" d="M189.564 142.033C158.566 161.175 89.8837 221.286 99.7815 266.726C114.089 332.373 181.899 401.618 181.899 401.618C184.501 424.323 203.895 429.54 207.964 431C211.479 432.258 197.717 400.352 199.202 397.795C203.98 389.581 213.388 402.011 215.569 393.98C216.95 388.91 204.926 379.618 194.235 380.804C194.235 380.804 145.932 290.384 159.671 249.787C173.422 209.189 270.079 212.227 276.705 137.22C278.476 117.175 270.543 92.0254 189.564 142.033Z" fill="#FB9C9A"/>
<path fill-rule="evenodd" clip-rule="evenodd" d="M224.466 331.77C261.247 286.895 320.243 251.6 326.812 188.815C331.423 144.762 301.904 112.864 262.835 97.441C201.997 73.4313 123.866 79.0466 68.2103 113.778C-11.7015 163.648 -17.7662 271.998 34.2489 344.232C50.3689 366.615 71.6595 387.661 98.6538 395.932C118.819 402.111 156.271 403.735 169.185 381.802C173.447 374.568 168.786 365.089 174.103 358.508C178.139 353.499 185.13 353.904 190.111 350.39C198.289 344.649 197.111 330.258 194.081 321.993L224.466 331.77Z" fill="#9EADFF"/>
<path fill-rule="evenodd" clip-rule="evenodd" d="M728.247 87.4119C728.247 87.4119 689.885 76.1186 662.8 46.9098C632.376 74.2679 592.761 87.4119 592.761 87.4119V149.106C592.761 161.155 595.832 173.006 601.684 183.538C607.536 194.071 615.976 202.938 626.207 209.303C627.317 210.001 628.436 210.689 629.535 211.378C638.596 217.014 649.041 220.029 659.711 220.089C670.381 220.148 680.859 217.248 689.981 211.713C701.662 204.626 711.32 194.648 718.022 182.742C724.725 170.836 728.246 157.404 728.247 143.741V87.4119Z" fill="url(#paint4_linear_293_91)"/>
<path fill-rule="evenodd" clip-rule="evenodd" d="M710.304 100.758C710.304 100.758 682.103 92.4143 662.191 70.834C639.826 91.0468 610.704 100.758 610.704 100.758V146.424C610.703 155.304 612.961 164.039 617.264 171.806C621.568 179.574 627.776 186.12 635.305 190.828C636.106 191.324 636.908 191.825 637.702 192.327C644.367 196.494 652.06 198.724 659.92 198.768C667.78 198.812 675.498 196.667 682.208 192.574H682.215C690.794 187.341 697.883 179.991 702.802 171.229C707.72 162.467 710.304 152.587 710.304 142.538V100.758Z" fill="white"/>
<path fill-rule="evenodd" clip-rule="evenodd" d="M632.55 149.344L651.186 174.313C652.742 176.393 655.115 177.563 657.582 177.47C658.83 177.411 660.045 177.05 661.123 176.419C662.201 175.788 663.111 174.906 663.774 173.847L698.58 119.965C701.048 116.138 700.168 110.875 696.601 108.217C693.033 105.56 688.146 106.514 685.663 110.341L656.859 154.932L644.807 138.785C642.104 135.15 637.154 134.564 633.775 137.478C630.381 140.392 629.847 145.709 632.55 149.344Z" fill="url(#paint5_linear_293_91)"/>
<path fill-rule="evenodd" clip-rule="evenodd" d="M586.09 148.196C587.22 141.815 590.847 135.293 592.991 134.544C607.302 129.566 614.878 143.871 600.127 148.307C592.991 150.454 585.843 168.875 585.843 168.875C585.843 168.875 585.233 153.089 586.09 148.196Z" fill="#FB9C9A"/>
<path fill-rule="evenodd" clip-rule="evenodd" d="M321.595 32.085C302.625 32.085 288.796 49.5014 291.494 73.1423C293.41 89.8955 314.579 107.909 331.93 109.608C346.232 111.007 351.831 96.4956 351.831 72.7025C351.831 48.9093 340.552 32.085 321.595 32.085Z" fill="url(#paint6_linear_293_91)"/>
<path fill-rule="evenodd" clip-rule="evenodd" d="M328.841 93.6357C329.202 91.9824 330.6 90.5157 331.742 89.345C332.749 88.3154 333.801 87.3162 335.048 86.5872C335.789 86.1225 336.595 85.7691 337.438 85.5382C342.353 84.3568 344.697 88.523 348.515 90.5444C349.987 91.3258 351.565 91.4656 353.204 91.5242C357.862 98.6278 349.597 106.403 343.539 108.937C340.518 110.204 332.628 120.231 323.01 108.704C320.831 106.098 309.018 106.887 312.715 93.6402C313.677 90.1745 312.279 85.7591 312.024 82.1912C311.648 76.9598 312.069 70.875 306.959 67.6673C306.152 67.1659 305.296 66.7494 304.404 66.4244C303.773 66.1914 303.051 65.6925 302.45 65.9765C298.017 68.0369 305.306 76.1497 294.38 79.483C295.086 83.1036 291.614 85.645 288.428 86.1259C283.439 86.8802 278.088 84.7145 274.782 80.9244C271.731 77.4225 268.034 71.9716 267.403 67.4494C266.636 61.9128 266.907 49.9 272.047 42.7898C276.059 37.2383 281.981 32.9249 289.044 33.3577C288.969 31.9556 289.901 30.5563 290.622 29.4342C292.319 26.7976 294.466 24.4794 296.964 22.5854C300.977 19.5796 305.937 17.3418 310.971 16.9631C317.72 16.4553 324.933 20.1913 327.864 26.4073C329.142 25.0366 331.08 24.5963 332.854 24.2461C337.197 23.3881 341.285 23.9306 345.148 26.1624C353.519 31.0063 356.404 40.4489 352.872 49.1956C351.61 48.7884 350.137 48.7793 348.83 48.59C345.673 48.1392 356.509 54.8469 334.507 58.718C328.781 59.7249 320.289 55.3485 316.157 60.732C313.451 64.2441 315.331 68.4357 315.886 72.296C316.382 75.7497 316.126 79.28 316.773 82.711C317.69 87.5925 321.432 93.5729 326.677 94.6674L328.841 93.6357Z" fill="url(#paint7_linear_293_91)"/>
<defs>
<linearGradient id="paint0_linear_293_91" x1="577.047" y1="278.27" x2="231.936" y2="561.865" gradientUnits="userSpaceOnUse">
<stop stop-color="#E3DBF9"/>
<stop offset="0.54" stop-color="#CCBBFA"/>
<stop offset="1" stop-color="#7848FC"/>
</linearGradient>
<linearGradient id="paint1_linear_293_91" x1="453.858" y1="248.103" x2="343.235" y2="427.548" gradientUnits="userSpaceOnUse">
<stop stop-color="#E3DBF9"/>
<stop offset="0.54" stop-color="#CCBBFA"/>
<stop offset="1" stop-color="#7848FC"/>
</linearGradient>
<linearGradient id="paint2_linear_293_91" x1="15.2895" y1="190.386" x2="316.256" y2="437.559" gradientUnits="userSpaceOnUse">
<stop stop-color="#E3DBF9"/>
<stop offset="0.56" stop-color="#CDBDFA"/>
<stop offset="1" stop-color="#7848FC"/>
</linearGradient>
<linearGradient id="paint3_linear_293_91" x1="287.186" y1="262.271" x2="269.842" y2="426.291" gradientUnits="userSpaceOnUse">
<stop stop-color="#E3E3FE"/>
<stop offset="0.47" stop-color="#BBBBFE"/>
<stop offset="1" stop-color="#4F4FFF"/>
</linearGradient>
<linearGradient id="paint4_linear_293_91" x1="700.621" y1="48.6171" x2="573.754" y2="286.94" gradientUnits="userSpaceOnUse">
<stop stop-color="#AADBFF"/>
<stop offset="0.6" stop-color="#91D1FF"/>
<stop offset="0.81" stop-color="#5AB9FF"/>
<stop offset="1" stop-color="#22A1FF"/>
</linearGradient>
<linearGradient id="paint5_linear_293_91" x1="692.301" y1="86.1563" x2="613.316" y2="216.052" gradientUnits="userSpaceOnUse">
<stop stop-color="#AADBFF"/>
<stop offset="0.47" stop-color="#85CBFF"/>
<stop offset="1" stop-color="#22A1FF"/>
</linearGradient>
<linearGradient id="paint6_linear_293_91" x1="345.076" y1="39.008" x2="293.667" y2="117.571" gradientUnits="userSpaceOnUse">
<stop stop-color="#FB9C9A"/>
<stop offset="0.64" stop-color="#FC8886"/>
<stop offset="0.84" stop-color="#FD5450"/>
<stop offset="1" stop-color="#FF1712"/>
</linearGradient>
<linearGradient id="paint7_linear_293_91" x1="329.763" y1="111.435" x2="297.907" y2="10.6202" gradientUnits="userSpaceOnUse">
<stop/>
<stop offset="0.53" stop-color="#121212"/>
<stop offset="1" stop-color="#4D4D4D"/>
</linearGradient>
</defs>
</svg>
