<svg width="890" height="890" viewBox="0 0 890 890" fill="none" xmlns="http://www.w3.org/2000/svg">
<path fill-rule="evenodd" clip-rule="evenodd" d="M442.295 205.184C602.611 340.382 770.893 288.569 789.763 444.171C809.807 609.568 756.191 510.025 627.061 613.22C438.606 763.84 155.621 711.288 145.141 442.599C138.166 263.598 314.928 97.7774 442.295 205.184Z" fill="#F5F2FD"/>
<path d="M102.19 567.788C103.603 564.657 104.449 561.462 106.115 558.823C107.995 556.252 111.156 554.268 114.426 555.431C129.063 560.172 143.783 560.064 151.704 547.972C151.65 548.156 151.629 548.347 151.64 548.539C151.643 548.717 151.856 548.783 152.033 548.782C152.214 549.133 152.89 549.408 153.246 549.581C155.096 550.408 157.184 550.488 159.199 550.252C161.742 549.832 163.809 548.143 166.023 546.914C167.453 546.058 168.961 545.34 170.527 544.771C170.563 545.594 170.477 546.418 170.274 547.216C170.232 547.204 170.188 547.201 170.146 547.208C170.103 547.214 170.062 547.23 170.026 547.255C168.251 549.683 164.545 550.435 161.452 552.207C158.813 553.477 156.644 555.485 154.796 557.773C153.047 559.815 151.619 562.111 150.561 564.583C148.079 569.957 147.408 575.91 147.125 581.752C147.103 582.92 146.507 589.191 148.477 588.177C150.363 586.137 151.358 583.577 153.43 582.242C159.429 577.992 166.924 577.337 172.239 572.105C177.586 566.591 181.456 555.963 174.837 550.027C173.858 549.186 172.735 548.529 171.522 548.086C171.309 548.018 171.166 547.913 170.953 547.845C171.255 546.738 171.384 545.59 171.336 544.443C172.595 544.054 173.905 543.858 175.222 543.865C177.168 543.841 179.189 544.135 181.094 543.687C184.377 542.975 186.962 540.218 187.878 536.987C188.149 535.958 188.558 534.679 188.543 533.44C190.186 534.731 191.97 535.947 193.995 536.594C196.907 537.408 200.547 537.046 201.675 533.705C202.357 531.574 201.834 529.351 201.631 527.231C201.437 525.818 201.872 523.724 202.134 521.987C202.277 522.777 202.575 523.532 203.01 524.206C203.552 525.084 204.164 525.926 204.775 526.768C204.477 531.372 204.433 536.469 206.959 540.507C200.685 539.557 199.285 549.624 190.52 544.706C189.381 544.224 186.31 541.89 185.911 544.054C185.813 544.727 186.103 545.29 186.323 545.889C186.907 547.372 187.711 548.758 188.708 550C191.725 553.609 196.924 556.27 201.615 555.01C203.273 554.601 204.814 553.273 205.831 552.482C207.042 551.62 208.384 550.959 209.806 550.524C212.696 549.569 215.806 549.212 218.37 547.624C218.96 547.237 219.501 546.779 219.981 546.26C220.399 548.626 222.019 550.906 225.513 553.022C230.249 555.478 234.936 556.801 238.735 560.718C239.379 561.276 240.675 563.101 241.536 564.081C242.613 565.307 243.384 564.731 243.614 563.278C245.244 557.631 245.523 551.435 242.909 546.017C241.707 543.165 239.756 539.898 238.982 537.359C238.494 535.03 238.543 533.224 238.689 530.745C239 527.175 240.068 523.712 241.822 520.587C242.445 519.376 243.386 518.267 244.151 517.161C245.887 520.183 246.217 524.107 245.582 527.194C244.575 531.629 242.083 536.296 243.979 540.837C244.748 543.022 246.223 545.02 248.566 545.594C249.845 546.004 251.26 545.986 252.504 546.502C253.217 546.757 253.898 547.092 254.534 547.503L254.853 547.606C254.915 547.588 254.972 547.559 255.022 547.518C255.071 547.478 255.112 547.428 255.141 547.371C255.17 547.314 255.188 547.252 255.192 547.188C255.196 547.124 255.187 547.06 255.165 547C255.723 546.356 256.124 544.37 256.366 543.978C259.209 536.193 263.54 531.47 260.598 522.305C260.237 521.137 259.797 519.996 259.282 518.888C260.094 518.736 260.87 518.515 261.682 518.363C266.092 517.248 270.766 517.51 274.546 519.835C275.792 520.528 277.468 521.533 278.22 522.303C278.685 522.687 278.941 523.356 279.544 523.49C280.71 523.334 279.736 521.789 279.657 521.118C278.623 517.556 278.085 514.095 278.255 510.625C278.287 504.467 281.652 498.906 283.348 492.869C284.558 487.617 283.498 481.933 281.034 477.149C277.593 470.645 269.937 466.668 262.75 469.303L261.624 469.883C259 466.518 255.08 464.265 251.064 462.863C248.506 461.868 245.81 461.476 243.216 460.587C238.595 458.874 233.185 456.321 228.833 459.276C228.901 459.062 229.005 458.92 229.04 458.813C231.814 454.179 231.959 448.586 232.461 443.343C232.561 440.791 232.995 438.264 233.75 435.825C233.755 435.834 233.761 435.843 233.769 435.849C233.777 435.856 233.786 435.861 233.796 435.865C233.806 435.868 233.817 435.869 233.827 435.868C233.838 435.867 233.848 435.864 233.857 435.859C235.517 435.626 237.086 436.598 239 436.858C240.729 437.026 242.47 437.052 244.203 436.936C244.604 437.887 245.004 438.838 245.616 439.68C247.055 441.608 249.018 443 251.225 443.999C256.17 446.169 258.418 441.895 260.57 438.295C261.369 437.082 262.739 436.287 264.105 435.138C265.473 434.003 266.6 432.606 267.417 431.028C268.732 428.57 269.19 425.486 268.097 422.845C267.297 421.121 265.449 420.471 263.744 419.926C261.116 419.144 258.458 418.822 255.898 417.827C254.05 417.177 252.374 416.171 250.422 415.664C248.931 415.187 247.303 415.312 245.784 415.472C244.158 415.83 242.501 416.028 240.837 416.063C241.778 412.017 242.539 407.62 244.947 404.866C247.074 402.257 250.246 401.157 253.464 401.012C253.943 400.955 254.428 401.01 254.882 401.171C256.257 403.667 257.986 406.159 260.827 407.009C262.854 407.834 265.397 407.414 266.936 405.909C267.189 405.594 267.399 405.246 267.56 404.875C268.777 408.965 271.352 411.198 275.807 410.861C277.046 410.846 278.246 410.584 279.482 410.392C279.976 410.315 280.541 410.202 280.928 409.914C281.77 409.303 281.859 407.922 280.968 407.401C279.687 406.816 278.138 407.436 276.831 407.664C275.385 407.965 274.47 408.436 273.367 408.025C271.66 407.302 270.151 405.409 268.648 404.048C270.942 403.489 272.979 402.261 274.3 400.334C275.766 398.688 277.42 397.925 279.643 397.403C281.725 396.953 283.982 396.324 285.413 394.608C287.431 391.788 287.447 387.329 284.763 384.885C280.756 381.253 276.005 383.434 276.142 388.882C276.127 390.581 276.366 392.772 275.991 393.944C275.444 395.473 274.114 396.692 272.392 397.668C270.949 398.323 269.471 399.084 268.495 400.299C268.482 396.3 265.698 394.352 262.339 391.633C259.644 389.465 256.545 387.855 253.222 386.895C251.873 386.523 250.345 385.975 248.936 386.523C247.423 387.213 247.764 389.085 248.591 390.172C250.324 393.018 253.743 394.816 253.92 397.751C254.104 398.28 253.831 399.132 253.91 399.804C250.476 399.704 246.882 401.021 244.579 403.633C241.399 406.962 240.853 411.605 239.844 415.863C237.085 416.038 234.255 416.073 231.499 416.425C231.392 416.391 231.322 416.427 231.218 416.57C231.13 416.526 231.029 416.515 230.934 416.538C230.849 416.569 230.773 416.623 230.715 416.692C230.656 416.761 230.617 416.845 230.6 416.934C230.583 417.023 230.59 417.115 230.619 417.201C230.649 417.287 230.7 417.364 230.768 417.424C233.429 418.773 235.742 420.719 237.525 423.111C235.708 427.875 233.463 432.502 232.285 437.471C231.111 442.793 231.573 448.697 230.145 453.528C229.537 455.976 228.425 457.618 227.391 459.931C227.496 459.788 227.357 460.037 227.219 460.287C226.915 460.591 226.679 460.956 226.524 461.357L226.417 461.322C220.982 459.584 215.547 463.719 210.931 465.297C209.416 465.811 207.755 466.043 206.519 466.235C205.177 466.393 201.391 466.474 204.068 468.388C206.78 470.195 209.77 471.681 212.413 473.701C213.916 475.063 215.321 477.099 216.336 479.068C219.056 484.519 221.148 490.652 225.027 495.417C224.993 495.533 224.995 495.656 225.032 495.771C226.662 498.936 225.182 502.281 221.982 504.018C220.505 504.779 218.207 504.984 216.415 505.997C211.293 503.83 205.711 507.507 202.932 511.787C201.86 513.853 201.5 516.263 201.421 518.529C201.417 519.226 201.449 519.922 201.517 520.615C201.398 520.458 201.241 520.334 201.06 520.256C200.879 520.177 200.681 520.147 200.485 520.168C198.648 520.403 197.442 523.071 196.709 523.894C195.733 525.109 194.111 525.589 192.627 525.819C194.449 521.409 195.164 516.057 195.265 512.8C195.252 511.739 195.52 510.532 195.367 509.543C195.434 509.513 195.493 509.468 195.541 509.413C195.59 509.357 195.625 509.292 195.646 509.221C195.744 508.548 197.289 507.573 197.948 506.433C198.745 505.043 198.973 503.413 198.953 501.82C199.125 498.527 197.778 495.394 195.73 492.8C193.785 490.064 190.266 488.762 187.809 487.447C184.424 485.542 181.672 483.31 180.39 479.787C179.825 478.179 179.611 476.468 179.763 474.77C180.125 472.536 179.976 468.963 176.798 469.533C172.335 472.1 172.5 482.785 173.651 487.265C175.291 494.075 178.112 501.967 177.021 508.315C176.62 510.302 175.753 511.728 174.338 511.745C174.231 511.711 174.16 511.747 174.054 511.713C172.598 508.369 170.72 505.242 168.772 502.151C168.627 501.87 168.448 501.695 168.303 501.414C169.024 500.367 169.605 499.23 170.031 498.032C170.601 496.505 171.008 494.923 171.248 493.311C171.633 493.023 171.412 492.247 171.371 491.823C171.168 489.702 170.083 487.769 169.245 485.797C167.864 482.771 167.787 479.339 166.474 476.099C164.732 472.546 161.264 469.616 157.261 469.275C156.942 469.238 156.62 469.254 156.306 469.322C155.904 466.702 155.73 464.052 155.785 461.401C157.688 460.777 159.406 459.446 160.09 457.492C160.484 456.624 160.666 455.675 160.623 454.723C162.809 454.13 165.169 453.182 166.098 451.012C166.303 450.372 166.507 449.733 166.642 449.13C167.178 450.177 167.856 451.145 168.658 452.007C171.555 454.52 174.443 450.451 175.76 448.17C177.633 445.068 181.708 442.613 182.933 438.599C184.301 434.689 183.854 429.847 180.914 426.733C178.942 424.634 176.235 423.18 173.396 422.507C171.244 422.18 169.043 422.452 167.036 423.292L166.965 423.328C165.318 422.283 163.439 421.662 161.494 421.519C158.659 421.2 156.02 422.47 153.306 423.246C152.54 423.419 151.752 423.464 150.972 423.38L150.865 423.346C150.777 423.302 150.677 423.291 150.582 423.314C149.42 420.886 148.258 418.459 147.237 415.958C146.362 413.917 145.452 411.804 144.612 409.656C145.845 409.824 147.099 409.724 148.289 409.364C150.228 408.809 151.727 406.88 151.56 404.83C151.438 403.557 150.786 402.291 150.845 401.37C150.801 400.592 151.466 399.983 152.054 398.878C152.951 396.992 152.004 394.809 150.958 393.123C149.19 390.385 145.635 389.012 142.387 389.618C141.221 389.774 140.404 389.571 139.375 389.301C141.404 387.365 142 384.031 143.533 381.996C143.88 381.556 144.265 381.149 144.685 380.778C144.658 380.875 144.661 380.977 144.694 381.072C144.727 381.166 144.788 381.249 144.869 381.307C144.88 381.47 144.931 381.627 145.016 381.766C145.85 384.91 147.332 387.845 149.367 390.382C150.915 392.522 153.13 394.23 155.856 394.338C157.309 394.568 158.646 393.879 159.805 393.193C161.105 392.434 162.442 391.746 163.778 391.057C165.471 390.204 167.379 389.875 169.26 390.11C171.141 390.346 172.909 391.136 174.34 392.38C175.303 393.041 176.062 394.341 177.1 395.319C177.162 395.423 177.258 395.503 177.372 395.546C177.487 395.588 177.612 395.59 177.727 395.551C177.842 395.513 177.941 395.436 178.006 395.333C178.072 395.231 178.1 395.109 178.087 394.988C178.012 394.671 177.69 394.391 177.546 394.11C175.708 391.408 174.356 387.921 172.303 384.973C169.639 381.184 166.725 377.256 162.766 374.756C160.13 373.266 157.009 372.738 154.002 372.774C152.506 372.798 151.036 373.167 149.706 373.853C148.377 374.538 147.223 375.521 146.335 376.725C145.76 377.571 145.307 378.494 144.988 379.466C144.861 379.518 144.751 379.605 144.673 379.717C142.111 381.482 141.578 384.249 140.263 386.707C139.571 387.954 139.049 388.668 138.03 389.282L137.748 389.427C136.045 383.184 134.622 376.796 135.078 370.598C135.099 370.276 135.143 369.956 135.208 369.641C135.703 369.564 136.233 369.558 136.692 369.411C138.491 368.929 139.533 367.324 140.042 365.548C140.862 363.168 140.935 360.371 139.387 358.231C139.135 357.915 138.739 357.319 138.347 357.076C138.393 356.951 138.415 356.819 138.413 356.686C139.661 357.378 140.893 356.833 141.909 356.042L141.945 356.112C142.41 356.496 143.116 356.31 143.648 356.481C144.145 356.581 145.528 356.847 145.957 357.16C147.31 357.887 147.888 358.835 148.788 360.063C149.58 361.074 150.628 361.855 151.823 362.327C154.458 363.639 157.642 363.601 159.049 365.813C160.166 367.463 160.906 370.107 162.379 371.93C163.171 372.924 164.059 373.838 165.031 374.658C165.532 375.112 166.139 375.6 166.813 375.698C168.548 375.783 167.571 374.061 167.277 373.145C166.841 371.857 166.598 370.513 166.557 369.154C166.458 366.891 167.743 364.894 167.677 362.346C167.794 360.327 167.169 358.424 166.193 356.702C165.003 354.354 163.282 352.315 161.167 350.747C159.642 349.637 157.894 348.871 156.044 348.503C154.195 348.134 152.287 348.172 150.453 348.612C148.691 349.165 147.218 350.279 145.779 351.288C143.64 352.835 141.515 355.622 139.677 355.856C139.006 355.935 139.004 355.758 138.399 355.447C138.861 352.716 139.182 350.058 139.645 347.328C139.975 345.378 140.972 342.995 142.292 340.891C142.399 340.925 142.47 340.889 142.61 340.816C143.945 339.951 145.794 340.777 147.853 341.319C151.541 341.911 155.399 341.97 155.341 337.193C155.324 335.778 155.196 333.975 155.466 332.945C155.905 331.206 156.482 329.217 155.577 327.459C157.05 326.344 158.559 325.3 160.104 324.326C162.728 322.733 165.511 321.418 168.408 320.403C169.476 320.921 170.546 321.615 171.716 321.814C173.986 322.246 176.956 321.962 178.87 322.222C181.176 322.725 182.713 323.98 184.919 324.98C187.229 325.836 189.806 325.31 192.213 325.316C192.992 325.271 194.692 325.463 193.969 324.233C189.697 319.224 184.965 314.186 178.777 311.678C174.333 309.962 166.979 310.547 165.631 316.048C165.65 317.641 166.3 318.73 166.528 320.036C165.761 320.325 165.009 320.653 164.275 321.019C161.01 322.554 157.923 324.443 155.069 326.652C154.167 325.248 152.773 324.097 151.417 323.193C149.919 322.185 148.457 321.247 146.715 320.632C143.303 319.363 139.506 321.498 136.832 322.698C135.766 323.219 134.595 323.487 133.409 323.483C132.454 323.53 131.39 323.365 130.619 323.941C129.287 324.984 129.594 326.962 130.282 328.298C130.753 329.212 131.751 329.766 132.676 330.18C134.134 330.764 136.609 330.557 137.672 330.721C139.02 330.917 139.91 331.437 140.559 332.349C140.829 332.768 140.958 333.262 140.929 333.76C140.87 334.681 140.597 335.533 140.608 336.418C140.48 337.553 140.954 338.643 141.601 339.555C141.659 339.679 141.745 339.787 141.853 339.871C140.359 342.153 139.221 344.61 138.759 347.339C138.23 350.46 137.913 353.472 137.313 356.452C137.172 356.355 137.016 356.285 136.85 356.245C133.256 354.625 128.424 350.084 123.89 352.687C121.708 353.633 120.109 356.059 118.566 357.21C115.548 359.299 112.266 360.011 108.919 358.353C106.217 357.254 105.496 359.138 106.903 361.35C108.02 363 109.593 364.326 111.305 365.402C112.661 366.306 114.121 367.066 115.82 367.081C118.401 366.908 121.182 365.742 123.239 366.106C125.19 366.436 127.006 367.37 128.854 368.02C130.489 368.602 132.335 369.075 134.14 369.124C134.074 369.439 134.031 369.759 134.01 370.08C133.765 373.233 134.051 376.379 134.514 379.523C135.045 382.453 135.682 385.419 136.461 388.311C135.5 387.902 134.445 387.767 133.413 387.924C131.435 388.231 129.821 389.418 127.99 390.184C126.299 390.876 123.685 391.156 122.536 389.79C121.28 388.389 120.372 386.454 118.454 385.841C116.963 385.54 117.164 387.484 117.211 388.439C117.267 390.101 118.064 391.649 118.896 393.089C120.237 395.451 122.102 397.474 124.347 399.004C127.094 400.881 129.688 401.77 132.468 403.365C134.681 404.895 136.861 406.709 139.421 407.703C140.69 408.256 142.011 408.679 143.365 408.965C144.021 410.585 144.714 412.275 145.371 413.895C147.737 419.351 150.383 424.486 152.289 429.912C148.885 429.352 145.483 428.969 142.276 427.238C140.496 426.375 138.182 425.165 136.289 423.737C134.074 422.03 129.638 418.085 128.206 422.561C127.669 424.974 128.62 427.51 129.989 429.475C131.894 431.964 134.365 434.341 135.529 436.945C137.804 443.606 139.314 451.373 144.933 456.577C147.152 458.638 149.586 460.944 152.738 461.189C153.392 461.21 154.046 461.143 154.682 460.989C154.651 461.272 154.689 461.52 154.657 461.803C154.686 464.113 154.891 466.417 155.271 468.696C150.041 469.255 145.125 472.5 141.812 476.432C138.029 481.427 134.997 486.948 132.81 492.82C132.128 494.951 130.775 497.162 131.475 499.383C132.1 501.287 134.204 502.606 136.222 502.723C137.744 502.74 139.151 502.015 140.596 501.537C141.148 501.328 141.713 501.156 142.288 501.021C142.053 502.696 141.403 504.285 140.397 505.645C138.901 507.751 136.592 510.008 135.316 512.713C134.027 511.944 132.585 511.465 131.092 511.312C129.598 511.159 128.089 511.335 126.671 511.827C122.971 513.111 120.463 516.362 117.662 518.873C115.949 520.557 114.723 521.633 112.322 521.981C110.167 522.29 106.588 521.909 104.086 522.753C101.511 523.457 99.7316 525.531 98.6981 527.844C95.8296 533.505 96.1222 540.119 96.1974 546.311C96.4453 552.147 96.3754 558.058 97.2945 563.815C97.7444 565.897 97.9516 568.372 98.8233 570.237C100.513 572.48 101.738 568.465 102.19 567.788ZM238.531 424.371C239.544 426.163 240.309 427.994 241.181 429.859C242.015 431.477 242.883 432.988 243.575 434.678C243.81 435.154 244.005 435.649 244.159 436.157C242.25 436.251 240.127 436.277 238.601 435.906C237.288 435.604 235.97 434.947 234.591 435.035C234.534 435.055 234.471 435.056 234.413 435.037C235.538 431.52 237.089 427.962 238.531 424.371ZM227.946 461.868C228.177 461.732 228.35 461.516 228.434 461.261C232.105 457.5 237.044 459.316 242.378 461.375C245.72 462.679 249.299 463.06 252.537 464.507C255.203 465.536 258.271 467.516 260.097 469.334C260.492 469.71 260.852 470.12 261.174 470.56C258.259 472.329 255.99 475.01 255.04 478.349C252.986 484.036 253.065 490.581 251.751 495.976C250.63 499.848 248.868 503.336 246.178 506.235C244.121 502.934 240.868 503.186 237.413 504.254C235.685 504.699 234.378 504.928 233.517 503.947C232.872 503.213 232.471 502.261 231.963 501.277C232.212 501.416 232.532 501.518 232.781 501.656C234.557 502.165 236.501 501.964 238.266 501.589C242.179 500.374 243.858 495.859 244.38 492.208C244.464 491.17 244.293 490.127 243.883 489.17C244.573 489.063 245.241 488.839 245.857 488.509C247.157 487.75 248.133 486.536 249.038 485.357C251.195 482.286 251.679 478.389 250.785 474.754C248.888 467.098 242.559 464.663 235.267 464.504C232.788 464.357 230.122 463.328 227.526 462.262C227.841 462.011 227.875 461.905 227.946 461.868ZM219.145 506.457C220.944 505.975 222.779 505.564 224.179 504.308C225.71 502.965 226.684 501.098 226.911 499.073C226.945 498.503 226.89 497.93 226.749 497.376C226.927 497.551 227.107 497.726 227.322 497.971C226.574 500.493 226.359 503.185 226.215 505.841C226.161 507.292 226.249 508.671 226.867 510.044C226.903 510.114 226.833 510.15 226.869 510.222C228.176 512.931 230.967 515.41 232.337 517.551C233.896 520.576 232.632 524.342 230.68 526.772C228.553 529.382 225.889 531.467 223.333 533.762L223.225 533.551C222.788 532.737 222.203 532.013 221.5 531.414C218.852 529.039 215.203 528.694 212.667 526.708C211.524 525.873 211.01 524.357 211.671 523.393C211.741 523.356 211.775 523.25 211.846 523.215C212.232 522.927 212.654 522.709 213.039 522.422C216.096 520.58 219.393 518.169 219.985 514.481C220.193 512.643 220.134 510.785 219.812 508.963C219.635 508.117 219.412 507.28 219.145 506.457ZM153.557 528.593C153.867 528.49 154.186 528.415 154.51 528.369C155.535 528.286 156.067 528.456 157.097 528.727C159.692 529.616 162.473 531.387 165.352 532.484C165.282 532.52 165.282 532.52 165.248 532.627C164.498 534.971 162.782 536.479 160.171 537.112C158.052 537.49 156.478 538.926 155.331 540.674C155.024 541.095 154.746 541.536 154.498 541.994C154.736 541.247 155.045 540.465 155.284 539.719C155.836 537.64 155.93 535.465 155.56 533.346C155.258 531.721 154.495 530.067 153.557 528.593ZM141.651 506.868C142.799 505.297 143.309 503.522 143.569 501.608C144.204 501.458 144.875 501.38 145.44 501.266C148.727 500.908 151.462 501.724 153.964 503.817C155.859 505.422 158.07 506.776 160.582 506.815C163.658 506.566 166.22 504.801 168.032 502.443C170.449 506.27 172.76 510.065 174.406 514.468C175.318 516.757 175.911 518.944 176.54 521.201C175.968 521.51 175.313 521.629 174.668 521.542C173.464 521.451 171.685 520.588 170.229 520.181C165.648 518.892 160.807 519.517 156.367 520.915C154.182 521.685 151.865 523.235 150.135 523.503C149.933 523.502 149.733 523.516 149.534 523.546C145.955 523.165 142.329 521.829 140.274 518.704C139.302 517.336 138.575 515.752 137.288 514.635C137.002 514.426 136.716 514.217 136.394 513.938C137.708 511.48 139.807 509.508 141.651 506.867V506.868Z" fill="url(#paint0_linear_253_1052)"/>
<path fill-rule="evenodd" clip-rule="evenodd" d="M167.997 600.776C168.786 606.361 171.411 612.1 175.008 617.649C179.634 624.779 185.711 631.663 190.428 637.527C194.576 642.793 198.963 647.801 203.515 652.63C208.086 657.474 212.876 662.081 217.869 666.509C224.505 672.427 231.526 677.9 238.886 682.89C256.232 694.596 276.202 703.923 299.771 710.03C300.358 710.164 300.966 710.181 301.56 710.079C302.154 709.978 302.722 709.761 303.232 709.44C303.742 709.119 304.184 708.701 304.532 708.21C304.88 707.718 305.129 707.163 305.262 706.576C305.396 705.988 305.413 705.38 305.312 704.786C305.211 704.192 304.993 703.624 304.673 703.114C304.352 702.604 303.934 702.163 303.442 701.814C302.951 701.466 302.396 701.218 301.808 701.084C278.846 696.496 258.985 688.867 241.859 678.3C234.494 673.781 227.53 668.639 221.044 662.93C216.189 658.625 211.609 654.018 207.333 649.137C203.074 644.25 199.068 639.148 195.328 633.853C191.162 627.873 185.674 620.859 181.727 613.639C179.213 609.031 177.395 604.352 177.138 599.884C177.014 598.676 176.417 597.566 175.478 596.797C174.538 596.029 173.332 595.663 172.124 595.781C170.915 595.899 169.803 596.491 169.029 597.427C168.256 598.363 167.885 599.567 167.997 600.776L167.997 600.776ZM303.566 161.988C307.365 158.994 311.642 156.67 316.157 154.815C323.224 151.907 330.842 150.087 338.129 148.587C355.017 145.153 372.545 144.367 389.505 146.941C406.484 149.518 422.839 155.432 437.394 165.151C449.546 173.383 460.32 183.479 471.205 193.35C478.602 200.081 486.055 206.713 494.094 212.546C502.74 218.843 512.046 224.235 522.6 227.893C531.319 230.94 540.111 232.359 548.94 233.036C569.021 234.576 589.303 232.051 609.329 236.362C617.608 238.158 625.17 241.296 632.273 245.255C643.213 251.349 653.07 259.406 662.817 267.658C663.281 268.045 663.818 268.336 664.395 268.514C664.973 268.693 665.58 268.756 666.182 268.699C666.784 268.643 667.368 268.468 667.902 268.184C668.436 267.901 668.909 267.515 669.294 267.049C669.678 266.582 669.966 266.044 670.142 265.466C670.318 264.888 670.378 264.28 670.319 263.679C670.259 263.077 670.082 262.493 669.796 261.961C669.51 261.428 669.122 260.957 668.654 260.575C658.246 252.245 647.71 244.169 636.128 238.117C628.235 234.001 619.902 230.797 610.798 229.072C590.35 225.166 569.791 228.167 549.343 227.041C540.992 226.583 532.659 225.406 524.362 222.693C514.266 219.362 505.327 214.374 497.012 208.477C489.065 202.842 481.686 196.412 474.417 189.809C463.367 179.778 452.574 169.367 440.294 160.903C425.261 150.408 408.227 143.939 390.515 140.793C372.838 137.652 354.465 137.849 336.697 140.918C328.859 142.25 320.672 143.948 313.018 146.788C307.659 148.774 302.574 151.342 298.004 154.688C297.036 155.426 296.4 156.518 296.237 157.724C296.074 158.93 296.397 160.151 297.135 161.119C297.872 162.087 298.964 162.723 300.171 162.886C301.377 163.048 302.598 162.726 303.566 161.988L303.566 161.988Z" fill="#F5F2FD"/>
<path fill-rule="evenodd" clip-rule="evenodd" d="M474.89 309.724C474.887 301.834 471.752 294.268 466.174 288.688C460.596 283.108 453.031 279.97 445.141 279.965H225.66C217.77 279.97 210.205 283.108 204.627 288.688C199.049 294.268 195.914 301.834 195.911 309.724V619.766C195.914 627.656 199.049 635.223 204.627 640.803C210.205 646.383 217.77 649.521 225.66 649.527H445.142C453.032 649.521 460.597 646.383 466.175 640.803C471.753 635.223 474.888 627.656 474.891 619.766L474.89 309.724Z" fill="white"/>
<path fill-rule="evenodd" clip-rule="evenodd" d="M507.973 328.432V285.752C507.973 282.558 504.767 279.965 500.826 279.965H169.98C166.04 279.965 162.833 282.558 162.833 285.752V328.432C162.833 331.626 166.04 334.219 169.98 334.219H500.826C504.767 334.219 507.973 331.626 507.973 328.432Z" fill="#6562F9"/>
<path d="M226.89 314.443C230.95 314.443 234.241 311.151 234.241 307.092C234.241 303.032 230.95 299.741 226.89 299.741C222.83 299.741 219.539 303.032 219.539 307.092C219.539 311.151 222.83 314.443 226.89 314.443Z" fill="white"/>
<path d="M250.18 314.443C254.24 314.443 257.531 311.151 257.531 307.092C257.531 303.032 254.24 299.741 250.18 299.741C246.12 299.741 242.829 303.032 242.829 307.092C242.829 311.151 246.12 314.443 250.18 314.443Z" fill="white"/>
<path d="M274.175 314.443C278.234 314.443 281.526 311.151 281.526 307.092C281.526 303.032 278.234 299.741 274.175 299.741C270.115 299.741 266.824 303.032 266.824 307.092C266.824 311.151 270.115 314.443 274.175 314.443Z" fill="white"/>
<path d="M276.848 464.743C304.782 464.743 327.428 442.098 327.428 414.163C327.428 386.228 304.782 363.583 276.848 363.583C248.913 363.583 226.268 386.228 226.268 414.163C226.268 442.098 248.913 464.743 276.848 464.743Z" fill="#E3E3FE"/>
<path fill-rule="evenodd" clip-rule="evenodd" d="M226.675 439.253C251.473 399.846 262.927 397.71 276.84 413.377C290.772 429.045 295.03 433.65 310.944 426.422C326.84 419.193 334.256 427.028 339.157 437.828C344.059 448.628 278.548 478.186 266.433 477.947C254.318 477.709 201.858 478.66 226.675 439.253Z" fill="url(#paint1_linear_253_1052)"/>
<path d="M305.329 404.283C315.145 404.283 323.102 396.326 323.102 386.511C323.102 376.695 315.145 368.738 305.329 368.738C295.514 368.738 287.557 376.695 287.557 386.511C287.557 396.326 295.514 404.283 305.329 404.283Z" fill="url(#paint2_linear_253_1052)"/>
<path fill-rule="evenodd" clip-rule="evenodd" d="M325.415 504.819C325.417 504.232 325.303 503.651 325.079 503.109C324.855 502.567 324.526 502.074 324.111 501.66C323.696 501.245 323.203 500.917 322.66 500.694C322.118 500.471 321.536 500.358 320.95 500.361H240.782C240.197 500.361 239.617 500.476 239.077 500.7C238.537 500.924 238.046 501.252 237.632 501.666C237.219 502.08 236.892 502.572 236.669 503.113C236.447 503.654 236.333 504.234 236.335 504.819V504.822C236.333 505.407 236.446 505.987 236.669 506.528C236.892 507.069 237.219 507.56 237.632 507.974C238.045 508.389 238.536 508.717 239.077 508.941C239.617 509.165 240.197 509.28 240.782 509.279H320.95C321.536 509.282 322.118 509.169 322.66 508.946C323.203 508.723 323.696 508.395 324.111 507.981C324.526 507.567 324.855 507.074 325.079 506.532C325.303 505.99 325.417 505.409 325.415 504.822V504.819Z" fill="#E3E3FE"/>
<path fill-rule="evenodd" clip-rule="evenodd" d="M461.654 422.54C461.652 418.977 460.235 415.561 457.714 413.043C455.194 410.525 451.777 409.111 448.214 409.112H355.459C353.696 409.112 351.95 409.459 350.322 410.134C348.693 410.809 347.214 411.798 345.968 413.045C344.722 414.293 343.734 415.773 343.06 417.402C342.386 419.031 342.041 420.777 342.042 422.54V422.544C342.041 424.307 342.387 426.052 343.06 427.681C343.734 429.31 344.722 430.791 345.968 432.037C347.214 433.284 348.694 434.273 350.322 434.948C351.951 435.623 353.696 435.97 355.459 435.969H448.214C451.776 435.971 455.194 434.557 457.714 432.04C460.235 429.522 461.652 426.106 461.654 422.544V422.54Z" fill="#EFEFFE"/>
<path fill-rule="evenodd" clip-rule="evenodd" d="M319.841 567.016C319.841 565.835 319.373 564.702 318.538 563.867C317.704 563.031 316.572 562.56 315.391 562.558H238.299C237.118 562.56 235.986 563.031 235.152 563.867C234.318 564.702 233.849 565.835 233.849 567.016V567.019C233.849 568.2 234.318 569.333 235.152 570.168C235.986 571.004 237.118 571.474 238.299 571.476H315.392C316.573 571.474 317.705 571.004 318.539 570.168C319.374 569.333 319.842 568.2 319.842 567.019L319.841 567.016ZM425.154 566.513C425.154 565.332 424.685 564.199 423.851 563.364C423.017 562.528 421.885 562.057 420.704 562.055H343.612C342.431 562.057 341.299 562.528 340.465 563.364C339.63 564.199 339.162 565.332 339.162 566.513V566.516C339.162 567.697 339.63 568.83 340.465 569.665C341.299 570.501 342.431 570.971 343.612 570.973H420.705C421.886 570.971 423.018 570.501 423.852 569.665C424.687 568.83 425.155 567.697 425.155 566.516L425.154 566.513ZM425.151 521.361C425.153 520.776 425.04 520.196 424.817 519.655C424.594 519.114 424.267 518.623 423.853 518.209C423.011 517.373 421.873 516.904 420.686 516.903H240.802C239.616 516.903 238.477 517.373 237.635 518.209C237.221 518.623 236.894 519.114 236.671 519.655C236.448 520.196 236.335 520.776 236.337 521.361V521.364C236.335 521.949 236.448 522.529 236.671 523.07C236.894 523.61 237.222 524.102 237.635 524.516C238.477 525.351 239.616 525.82 240.802 525.821H420.686C421.873 525.82 423.011 525.351 423.853 524.516C424.267 524.102 424.594 523.61 424.817 523.069C425.039 522.529 425.153 521.949 425.151 521.364V521.361ZM319.841 583.558C319.841 582.377 319.373 581.244 318.538 580.409C317.704 579.573 316.572 579.102 315.391 579.1H238.299C237.118 579.102 235.986 579.573 235.152 580.409C234.318 581.244 233.849 582.377 233.849 583.558V583.561C233.849 584.742 234.318 585.874 235.152 586.71C235.986 587.546 237.118 588.016 238.299 588.018H315.392C316.573 588.016 317.705 587.546 318.539 586.71C319.374 585.874 319.842 584.742 319.842 583.561L319.841 583.558ZM425.154 583.055C425.154 581.874 424.686 580.741 423.851 579.905C423.017 579.07 421.885 578.599 420.704 578.597H343.612C342.431 578.599 341.299 579.07 340.465 579.906C339.63 580.741 339.162 581.874 339.162 583.055V583.058C339.162 584.239 339.63 585.371 340.465 586.207C341.299 587.043 342.431 587.513 343.612 587.515H420.705C421.886 587.513 423.018 587.043 423.852 586.207C424.687 585.372 425.155 584.239 425.155 583.058L425.154 583.055ZM425.151 538.906C425.153 538.322 425.04 537.742 424.817 537.201C424.594 536.66 424.267 536.169 423.853 535.755C423.011 534.919 421.873 534.45 420.686 534.449H240.802C239.616 534.449 238.477 534.919 237.635 535.755C237.221 536.169 236.894 536.66 236.671 537.201C236.448 537.742 236.335 538.321 236.337 538.906V538.91C236.335 539.495 236.448 540.074 236.671 540.615C236.894 541.156 237.222 541.648 237.635 542.061C238.477 542.897 239.616 543.366 240.802 543.366H420.686C421.873 543.366 423.011 542.897 423.853 542.061C424.267 541.648 424.594 541.156 424.817 540.615C425.04 540.074 425.153 539.495 425.151 538.91V538.906ZM319.841 601.104C319.841 599.923 319.373 598.79 318.538 597.954C317.704 597.119 316.572 596.648 315.391 596.646H238.299C237.118 596.648 235.986 597.119 235.152 597.954C234.318 598.79 233.849 599.923 233.849 601.104V601.107C233.849 602.288 234.318 603.42 235.152 604.256C235.986 605.091 237.118 605.562 238.299 605.564H315.392C316.573 605.562 317.705 605.091 318.539 604.256C319.374 603.42 319.842 602.288 319.842 601.107L319.841 601.104ZM425.154 600.601C425.154 599.42 424.686 598.287 423.851 597.451C423.017 596.616 421.885 596.145 420.704 596.143H343.612C342.431 596.145 341.299 596.616 340.465 597.451C339.63 598.287 339.162 599.42 339.162 600.601V600.604C339.162 601.785 339.63 602.917 340.465 603.753C341.299 604.588 342.431 605.059 343.612 605.061H420.705C421.886 605.059 423.018 604.589 423.852 603.753C424.687 602.917 425.155 601.785 425.155 600.604L425.154 600.601Z" fill="#E3E3FE"/>
<path fill-rule="evenodd" clip-rule="evenodd" d="M648.931 332.305C666.55 332.305 679.395 348.528 676.889 370.55C675.109 386.156 656.061 402.403 637.214 410.19C620.935 416.917 620.848 392.304 620.848 370.14C620.848 347.976 631.324 332.305 648.931 332.305Z" fill="url(#paint3_linear_253_1052)"/>
<path fill-rule="evenodd" clip-rule="evenodd" d="M635.492 449.428C652.433 488.677 538.924 614.427 501.085 611.2C463.238 607.956 408.421 429.999 408.421 429.999L392.474 409.113L434.542 414.437L431.614 420.148C431.614 420.148 490.944 523.432 507.068 531.166C515.085 535.015 535.986 471.792 580.35 446.654C628.726 419.267 625.803 426.978 635.492 449.428Z" fill="url(#paint4_linear_253_1052)"/>
<path fill-rule="evenodd" clip-rule="evenodd" d="M529.625 475.643C542.118 473.843 562.807 477.213 569.896 488.78C573.96 495.41 572.626 503.305 574.567 510.56C578.888 526.729 593.96 542.268 611.727 541.625C633.472 540.859 640.531 511.766 644.651 495.234C650.175 472.978 655.646 444.43 637.009 426.728C633.679 423.561 629.857 421.056 625.751 419.038C620.3 416.383 614.482 414.559 608.49 413.63C601.014 412.43 593.224 412.38 585.758 413.719C573.484 415.944 562.07 422.188 552.576 430.15C540.272 440.505 531.305 453.272 524.183 467.589L529.625 475.643Z" fill="url(#paint5_linear_253_1052)"/>
<path fill-rule="evenodd" clip-rule="evenodd" d="M660.166 421.38C719.596 426.609 739.684 427.924 736.505 537.805C733.297 649.858 586.073 645.923 586.073 645.923C586.073 645.923 607.692 575.836 590.331 516.072C569.343 443.928 618.188 417.686 660.166 421.38Z" fill="url(#paint6_linear_253_1052)"/>
<path fill-rule="evenodd" clip-rule="evenodd" d="M514.878 394.841C514.876 389.647 512.812 384.667 509.139 380.994C505.467 377.321 500.487 375.256 495.293 375.253H383.894C378.699 375.253 373.716 377.317 370.042 380.991C366.369 384.665 364.305 389.647 364.305 394.843C364.305 400.038 366.369 405.02 370.042 408.694C373.716 412.368 378.699 414.432 383.894 414.432H495.293C500.487 414.429 505.468 412.364 509.14 408.69C512.813 405.017 514.876 400.036 514.878 394.841Z" fill="#ABDBFF"/>
<path d="M393.396 386.297V389.184C392.701 389.05 391.994 388.978 391.286 388.969C389.413 388.969 388.037 389.369 387.156 390.168C386.275 390.969 385.761 392.315 385.65 394.215H385.797C386.55 392.91 387.816 392.257 389.597 392.257C391.12 392.257 392.332 392.736 393.231 393.694C394.13 394.653 394.571 395.964 394.571 397.628C394.571 399.452 394.057 400.893 393.029 401.951C392.001 403.01 390.588 403.538 388.808 403.538C387.638 403.566 386.487 403.242 385.504 402.61C384.537 401.956 383.793 401.021 383.374 399.931C382.897 398.764 382.658 397.356 382.658 395.708C382.658 392.564 383.356 390.183 384.788 388.569C386.219 386.956 388.33 386.147 391.138 386.147C391.894 386.138 392.649 386.188 393.396 386.297ZM391.414 397.716C391.414 396.829 391.194 396.147 390.753 395.671C390.294 395.193 389.652 394.955 388.808 394.955C388.048 394.93 387.308 395.193 386.733 395.689C386.475 395.889 386.264 396.144 386.118 396.437C385.972 396.729 385.894 397.051 385.889 397.378C385.858 398.239 386.138 399.083 386.678 399.755C386.925 400.037 387.226 400.268 387.564 400.432C387.901 400.596 388.268 400.691 388.643 400.711C389.018 400.731 389.393 400.675 389.746 400.548C390.099 400.42 390.423 400.223 390.698 399.968C391.175 399.47 391.414 398.72 391.414 397.716ZM410.468 394.391V394.478C413.166 394.814 414.525 396.164 414.525 398.531C414.525 400.088 413.955 401.312 412.781 402.202C411.624 403.092 409.954 403.538 407.788 403.538C405.934 403.538 404.319 403.233 402.942 402.622V399.61C404.39 400.317 405.976 400.695 407.586 400.715C408.816 400.715 409.734 400.522 410.34 400.137C410.638 399.949 410.881 399.685 411.042 399.372C411.203 399.059 411.278 398.708 411.257 398.357C411.257 397.461 410.908 396.829 410.229 396.462C409.55 396.095 408.467 395.91 406.962 395.91H405.528V393.262H406.887C408.208 393.262 409.199 393.092 409.879 392.748C410.558 392.405 410.906 391.799 410.906 390.929C410.918 390.657 410.868 390.386 410.76 390.136C410.652 389.886 410.489 389.664 410.282 389.487C409.879 389.143 409.237 388.971 408.373 388.971C407.738 388.973 407.107 389.073 406.501 389.266C405.815 389.498 405.161 389.817 404.555 390.213L402.959 387.792C404.632 386.726 406.573 386.155 408.557 386.148C410.282 386.148 411.641 386.51 412.632 387.234C413.106 387.564 413.491 388.007 413.751 388.523C414.01 389.039 414.137 389.612 414.119 390.189C414.139 391.169 413.8 392.122 413.164 392.868C412.541 393.598 411.623 394.107 410.468 394.391ZM431.3 394.366C432.548 395.017 433.448 395.715 434.017 396.455C434.682 397.33 434.972 398.433 434.824 399.523C434.676 400.612 434.102 401.598 433.227 402.264C432.126 403.114 430.695 403.538 428.951 403.538C427.078 403.538 425.61 403.136 424.564 402.334C423.536 401.53 423.004 400.417 423.004 398.995C422.989 398.065 423.272 397.155 423.811 396.398C424.325 395.654 425.151 395.014 426.252 394.478C424.435 393.349 423.518 391.935 423.518 390.238C423.504 389.653 423.636 389.075 423.902 388.554C424.168 388.034 424.56 387.587 425.041 387.256C426.05 386.516 427.354 386.146 428.951 386.146C430.548 386.146 431.851 386.513 432.842 387.245C433.323 387.584 433.712 388.038 433.975 388.564C434.237 389.091 434.365 389.674 434.347 390.263C434.347 392.02 433.319 393.387 431.3 394.366ZM428.951 392.986C429.813 392.626 430.401 392.252 430.731 391.863C431.055 391.489 431.232 391.009 431.226 390.514C431.236 390.264 431.185 390.015 431.076 389.79C430.967 389.564 430.804 389.369 430.602 389.222C430.106 388.883 429.513 388.715 428.914 388.744C428.333 388.72 427.761 388.883 427.28 389.209C427.076 389.357 426.912 389.554 426.803 389.782C426.694 390.01 426.643 390.262 426.656 390.514C426.651 391.011 426.834 391.491 427.17 391.857C427.683 392.347 428.288 392.731 428.951 392.985V392.986ZM428.749 395.834C426.987 396.578 426.106 397.565 426.106 398.795C426.092 399.098 426.151 399.4 426.279 399.675C426.407 399.95 426.599 400.19 426.84 400.375C427.317 400.76 428.015 400.953 428.896 400.953C429.813 400.953 430.511 400.766 431.007 400.396C431.249 400.213 431.442 399.974 431.57 399.7C431.698 399.425 431.757 399.123 431.741 398.82C431.729 398.28 431.512 397.765 431.135 397.378C430.713 396.924 430.034 396.468 429.098 396.008L428.749 395.834ZM455.144 403.286H443.341V400.789L447.728 396.448C449.362 394.826 450.39 393.701 450.793 393.073C451.187 392.499 451.404 391.823 451.418 391.127C451.433 390.846 451.387 390.566 451.282 390.305C451.177 390.044 451.017 389.809 450.812 389.617C450.378 389.235 449.811 389.038 449.233 389.069C448.565 389.07 447.904 389.204 447.288 389.464C446.503 389.82 445.768 390.278 445.103 390.826L443.286 388.556C443.956 388.033 444.662 387.558 445.397 387.132C445.959 386.823 446.557 386.585 447.177 386.423C447.877 386.234 448.6 386.141 449.325 386.146C450.922 386.146 452.207 386.581 453.179 387.451C453.654 387.863 454.031 388.375 454.285 388.95C454.539 389.525 454.663 390.149 454.648 390.777C454.649 391.585 454.486 392.386 454.17 393.13C453.81 393.951 453.32 394.709 452.72 395.375C451.785 396.43 450.793 397.433 449.747 398.379L447.765 400.223V400.361H455.143L455.144 403.286ZM464.505 403.387V400.489C465.197 400.647 465.906 400.723 466.616 400.715C468.506 400.715 469.901 400.303 470.801 399.479C471.7 398.656 472.178 397.284 472.251 395.37H472.104C471.664 396.131 471.15 396.66 470.526 396.957C469.81 397.275 469.032 397.427 468.249 397.402C466.708 397.402 465.496 396.92 464.634 395.954C463.752 394.987 463.312 393.638 463.312 391.907C463.312 390.125 463.826 388.721 464.872 387.691C465.9 386.663 467.313 386.147 469.057 386.147C470.966 386.147 472.471 386.825 473.573 388.181C474.692 389.535 475.243 391.465 475.243 393.966C475.243 397.086 474.527 399.461 473.114 401.093C471.7 402.725 469.59 403.541 466.781 403.541C466.02 403.55 465.259 403.499 464.505 403.387ZM466.469 391.856C466.469 393.754 467.332 394.704 469.039 394.704C469.81 394.73 470.563 394.466 471.15 393.965C471.407 393.765 471.617 393.511 471.764 393.22C471.91 392.929 471.989 392.609 471.995 392.283C472.013 391.44 471.734 390.618 471.206 389.961C470.962 389.672 470.662 389.435 470.323 389.265C469.985 389.096 469.616 388.997 469.238 388.975C468.86 388.952 468.481 389.008 468.125 389.136C467.77 389.265 467.444 389.465 467.168 389.724C466.708 390.225 466.469 390.935 466.469 391.856ZM489.542 403.538C487.596 403.538 486.127 402.806 485.136 401.343C484.145 399.879 483.65 397.725 483.65 394.88C483.65 391.935 484.145 389.744 485.118 388.305C486.091 386.866 487.578 386.146 489.542 386.146C493.47 386.146 495.452 389.05 495.452 394.856C495.452 397.876 494.957 400.076 494.002 401.462C493.029 402.846 491.543 403.538 489.542 403.538ZM489.542 400.715C490.496 400.715 491.175 400.257 491.579 399.34C492.002 398.424 492.203 396.93 492.203 394.856C492.203 392.747 492.002 391.24 491.579 390.331C491.175 389.424 490.496 388.97 489.542 388.969C489.244 388.954 488.946 389.004 488.67 389.117C488.394 389.23 488.147 389.403 487.945 389.623C487.559 390.058 487.284 390.702 487.119 391.555C486.947 392.655 486.867 393.767 486.88 394.88C486.88 396.937 487.1 398.424 487.503 399.34C487.926 400.256 488.606 400.714 489.542 400.715Z" fill="#20238C"/>
<path fill-rule="evenodd" clip-rule="evenodd" d="M425.61 414.431C425.427 412.247 430.144 404.701 432.107 403.537C433.999 402.422 437.192 405.27 437.394 407.453C437.578 409.638 435.191 415.477 433.227 416.639C431.263 417.801 425.794 416.614 425.61 414.431Z" fill="#FB9C9A"/>
<path fill-rule="evenodd" clip-rule="evenodd" d="M650.794 332.306C650.794 332.306 654.649 340.825 651.859 347.539C651.125 349.31 649.399 350.604 648.004 351.887C644.425 355.14 639.927 356.871 636.056 359.635C634.899 360.447 632.44 362.02 632.587 363.708C632.788 365.678 636.662 364.753 637.726 364.435C641.911 363.183 645.216 361.702 647.473 365.111C649.768 368.591 647.932 377.15 645.564 382.948C645.141 383.976 643.233 388.333 645.417 388.769C646.831 389.046 648.079 387.407 648.85 386.486C651.071 383.78 651.658 374.547 653.861 371.812C654.889 370.546 656.467 369.101 657.936 371.386C662.451 378.439 657.899 385.7 652.87 388.117C646.812 391.043 646.041 405.79 646.041 405.79C646.041 405.79 659.184 409.907 663.259 399.332C670.473 401.843 684.147 400.122 684.055 386.217C697.014 380.845 702.961 360.507 690.81 353.471C692.572 352.614 693.655 350.109 694.132 348.374C699.107 330.841 678.604 311.177 659.294 322.172C655.034 324.595 651.932 327.719 650.794 332.306Z" fill="url(#paint7_linear_253_1052)"/>
<path d="M469.196 751.475C505.512 751.475 534.952 722.035 534.952 685.718C534.952 649.402 505.512 619.962 469.196 619.962C432.88 619.962 403.44 649.402 403.44 685.718C403.44 722.035 432.88 751.475 469.196 751.475Z" fill="url(#paint8_linear_253_1052)"/>
<path fill-rule="evenodd" clip-rule="evenodd" d="M430.671 691.46L452.44 718.609C453.334 719.723 454.475 720.614 455.773 721.21C457.072 721.806 458.491 722.09 459.919 722.041C461.346 721.992 462.743 721.61 463.997 720.927C465.251 720.243 466.328 719.276 467.143 718.102L507.8 659.516C509.188 657.515 509.724 655.045 509.29 652.649C508.857 650.253 507.489 648.127 505.488 646.74C503.488 645.352 501.018 644.816 498.622 645.25C496.226 645.683 494.1 647.051 492.712 649.051L459.067 697.534L444.988 679.977C443.461 678.093 441.25 676.89 438.839 676.631C436.427 676.372 434.011 677.079 432.119 678.596C430.227 680.113 429.012 682.318 428.741 684.728C428.47 687.139 429.164 689.558 430.671 691.458V691.46Z" fill="white"/>
<path fill-rule="evenodd" clip-rule="evenodd" d="M707.575 433.924C750.16 437.662 812.274 587.631 786.081 629.045C759.871 670.458 594.543 674.735 550.38 682.402C516.827 711.712 503.115 675.251 507.924 675.203C529.289 674.988 528.721 657.852 528.721 657.852C528.721 657.852 529.069 656.058 523.03 648.768C529.693 644.08 544.579 657.615 544.579 657.615C544.579 657.615 704.033 596.277 718.497 585.761C725.692 580.535 680.776 532.088 678.941 481.13C678.317 463.663 683.218 431.785 707.575 433.924Z" fill="url(#paint9_linear_253_1052)"/>
<path fill-rule="evenodd" clip-rule="evenodd" d="M680.354 539.537C684.704 527.688 697.498 511.084 711.044 510.341C718.81 509.913 725.123 514.838 732.428 516.576C748.709 520.455 769.543 514.574 777.418 498.634C787.073 479.135 764.826 459.103 752.234 447.624C735.274 432.191 712.752 413.815 688.321 421.806C683.952 423.232 679.933 425.405 676.206 428.061C671.28 431.596 666.912 435.849 663.247 440.68C658.64 446.69 654.896 453.52 652.528 460.726C648.655 472.584 648.728 485.594 651.225 497.731C654.492 513.476 661.467 527.431 670.681 540.5L680.354 539.537Z" fill="url(#paint10_linear_253_1052)"/>
<circle cx="665" cy="121" r="50" fill="#E9E9E9"/>
<circle cx="193.5" cy="777.5" r="26.5" fill="#E9E9E9"/>
<circle cx="71" cy="146" r="25" fill="#E9E9E9"/>
<defs>
<linearGradient id="paint0_linear_253_1052" x1="108.422" y1="335.796" x2="277.493" y2="624.813" gradientUnits="userSpaceOnUse">
<stop stop-color="#E3DBF9"/>
<stop offset="0.61" stop-color="#D1C1FA"/>
<stop offset="0.82" stop-color="#A685FB"/>
<stop offset="1" stop-color="#7846FD"/>
</linearGradient>
<linearGradient id="paint1_linear_253_1052" x1="294.836" y1="420.4" x2="259.746" y2="483.766" gradientUnits="userSpaceOnUse">
<stop stop-color="#AADBFF"/>
<stop offset="1" stop-color="#0500E3"/>
</linearGradient>
<linearGradient id="paint2_linear_253_1052" x1="312.662" y1="370.628" x2="275.605" y2="443.773" gradientUnits="userSpaceOnUse">
<stop stop-color="#AADBFF"/>
<stop offset="1" stop-color="#0500E3"/>
</linearGradient>
<linearGradient id="paint3_linear_253_1052" x1="625.85" y1="341.063" x2="673.984" y2="413.991" gradientUnits="userSpaceOnUse">
<stop stop-color="#FB9C9A"/>
<stop offset="0.64" stop-color="#FC8886"/>
<stop offset="0.84" stop-color="#FD5450"/>
<stop offset="1" stop-color="#FF1712"/>
</linearGradient>
<linearGradient id="paint4_linear_253_1052" x1="514.108" y1="449.292" x2="607.85" y2="609.467" gradientUnits="userSpaceOnUse">
<stop stop-color="#FB9C9A"/>
<stop offset="0.63" stop-color="#FC8784"/>
<stop offset="0.83" stop-color="#FD524E"/>
<stop offset="1" stop-color="#FF1712"/>
</linearGradient>
<linearGradient id="paint5_linear_253_1052" x1="580.841" y1="447.735" x2="627.693" y2="533.198" gradientUnits="userSpaceOnUse">
<stop stop-color="#20238C"/>
<stop offset="0.54" stop-color="#1A1D7F"/>
<stop offset="1" stop-color="#050751"/>
</linearGradient>
<linearGradient id="paint6_linear_253_1052" x1="596.078" y1="458.709" x2="708.262" y2="618.967" gradientUnits="userSpaceOnUse">
<stop stop-color="#20238C"/>
<stop offset="0.51" stop-color="#191C7E"/>
<stop offset="1" stop-color="#050751"/>
</linearGradient>
<linearGradient id="paint7_linear_253_1052" x1="646.691" y1="400.939" x2="690.626" y2="317.611" gradientUnits="userSpaceOnUse">
<stop/>
<stop offset="1" stop-color="#4D4D4D"/>
</linearGradient>
<linearGradient id="paint8_linear_253_1052" x1="495.643" y1="622.893" x2="431.563" y2="775.497" gradientUnits="userSpaceOnUse">
<stop stop-color="#AADBFF"/>
<stop offset="0.6" stop-color="#92D1FF"/>
<stop offset="0.81" stop-color="#5BB9FF"/>
<stop offset="1" stop-color="#22A1FF"/>
</linearGradient>
<linearGradient id="paint9_linear_253_1052" x1="645.888" y1="606.875" x2="664.459" y2="730.327" gradientUnits="userSpaceOnUse">
<stop stop-color="#FB9C9A"/>
<stop offset="0.47" stop-color="#FC7875"/>
<stop offset="1" stop-color="#FF1712"/>
</linearGradient>
<linearGradient id="paint10_linear_253_1052" x1="729.785" y1="432.604" x2="692.532" y2="553.204" gradientUnits="userSpaceOnUse">
<stop stop-color="#20238C"/>
<stop offset="0.49" stop-color="#191C7D"/>
<stop offset="1" stop-color="#050751"/>
</linearGradient>
</defs>
</svg>
